<?xml version="1.0" encoding="utf-8"?>
<!-- Generator: Adobe Illustrator 24.2.1, SVG Export Plug-In . SVG Version: 6.00 Build 0)  -->
<svg version="1.1" id="Layer_1" xmlns="http://www.w3.org/2000/svg" xmlns:xlink="http://www.w3.org/1999/xlink" x="0px" y="0px"
	 viewBox="0 0 750 506.75" style="enable-background:new 0 0 750 506.75;" xml:space="preserve">
<style type="text/css">
	.st0{fill:#FFFFFF;stroke:#000000;stroke-width:0.9471;stroke-miterlimit:10;}
	.st1{opacity:0.4;fill:#BCD631;enable-background:new    ;}
	.st2{fill:none;stroke:#000000;stroke-width:1.2767;stroke-miterlimit:10;}
	.st3{fill:none;stroke:#000000;stroke-width:1.2767;stroke-miterlimit:10;stroke-dasharray:3.8217,3.8217;}
	.st4{fill:none;stroke:#000000;stroke-width:1.2767;stroke-miterlimit:10;stroke-dasharray:3.8376,3.8376;}
	.st5{fill:none;stroke:#A7A9AC;stroke-width:14;stroke-miterlimit:10;}
	.st6{fill:#A7A9AC;}
	.st7{font-family:'Helvetica-Bold';}
	.st8{font-size:14px;}
	.st9{fill:none;stroke:#000000;stroke-miterlimit:10;}
	.st10{fill:none;stroke:#000000;stroke-width:0.3819;stroke-miterlimit:10;}
	.st11{font-family:'Helvetica';}
	.st12{font-size:12px;}
	.st13{fill:none;stroke:#000000;stroke-width:0.0841;stroke-miterlimit:10;}
	.st14{fill:#A97C50;stroke:#000000;stroke-width:0.5;stroke-miterlimit:10;}
	.st15{fill:#BE1E2D;stroke:#000000;stroke-width:0.5;stroke-miterlimit:10;}
	.st16{fill:#FBB040;stroke:#000000;stroke-width:0.5;stroke-miterlimit:10;}
	.st17{font-size:10px;}
	.st18{opacity:0.2;}
	.st19{fill:none;stroke:#000000;stroke-width:1.6973;stroke-miterlimit:10;}
	.st20{fill:#1C75BC;}
	.st21{fill:#006838;}
	.st22{fill:none;stroke:#000000;stroke-width:0.5658;stroke-miterlimit:10;}
	.st23{fill:none;stroke:#000000;stroke-width:0.7228;stroke-miterlimit:9.9996;stroke-dasharray:3.6132,3.6132;}
	.st24{fill:none;stroke:#000000;stroke-width:0.7228;stroke-miterlimit:10;stroke-dasharray:3.6133,3.6133;}
	.st25{fill:#FBB040;}
	.st26{fill:#A97C50;}
	.st27{fill:#BE1E2D;}
	.st28{fill:#00AEEF;stroke:#000000;stroke-miterlimit:10;}
	.st29{fill:#1584A8;stroke:#000000;stroke-miterlimit:10;}
	.st30{fill:#B3E4FA;fill-opacity:0.4;stroke:#000000;stroke-miterlimit:10;}
	.st31{fill:none;stroke:#000000;stroke-width:1.3518;stroke-miterlimit:10;stroke-dasharray:4.0553;}
	.st32{fill:#BCBEC0;}
	.st33{font-size:16px;}
	.st34{opacity:0.2;fill:#8DC63F;enable-background:new    ;}
	.st35{opacity:0.2;fill:#009444;enable-background:new    ;}
	.st36{opacity:0.2;fill:#F9ED32;enable-background:new    ;}
	.st37{font-size:6.996px;}
	.st38{fill:none;stroke:#2BB673;stroke-miterlimit:10;}
	.st39{fill:none;stroke:#2BB673;stroke-miterlimit:10;stroke-dasharray:11.4906,11.4906;}
	.st40{fill:none;stroke:#1C75BC;stroke-miterlimit:10;}
	.st41{opacity:0.4;fill:#C2B59B;enable-background:new    ;}
	.st42{fill:#FBB040;stroke:#000000;stroke-miterlimit:10;}
	.st43{fill:#D0DCE6;stroke:#000000;stroke-miterlimit:10;}
	.st44{fill:none;stroke:#000000;stroke-width:3;stroke-miterlimit:10;}
</style>
<rect y="0" class="st0" width="750" height="506.75"/>
<rect x="17.96" y="83.82" class="st1" width="130.2" height="136.82"/>
<g>
	<g>
		<polyline class="st2" points="735.81,486.25 735.81,488.17 733.9,488.17 		"/>
		<line class="st3" x1="730.07" y1="488.17" x2="13.5" y2="488.17"/>
		<polyline class="st2" points="11.59,488.17 9.68,488.17 9.68,486.25 		"/>
		<line class="st4" x1="9.68" y1="482.41" x2="9.68" y2="16.15"/>
		<polyline class="st2" points="9.68,14.23 9.68,12.32 11.59,12.32 		"/>
		<line class="st3" x1="15.41" y1="12.32" x2="731.99" y2="12.32"/>
		<polyline class="st2" points="733.9,12.32 735.81,12.32 735.81,14.23 		"/>
		<line class="st4" x1="735.81" y1="18.07" x2="735.81" y2="484.33"/>
	</g>
</g>
<g>
	<g>
		<g>
			<line class="st5" x1="152.72" y1="355.37" x2="202.18" y2="355.37"/>
			<g>
				<polygon class="st6" points="199.52,337.35 210.9,355.37 199.52,373.4 199.4,373.4 199.4,337.35 				"/>
			</g>
		</g>
	</g>
	<text transform="matrix(1 0 0 1 165.0872 391.4073)" class="st7 st8">PCR,</text>
	<text transform="matrix(1 0 0 1 142.1372 408.2073)" class="st7 st8">Sequencing</text>
</g>
<g>
	<g>
		<g>
			<line class="st5" x1="514.42" y1="355.37" x2="563.88" y2="355.37"/>
			<g>
				<polygon class="st6" points="561.22,337.35 572.6,355.37 561.22,373.4 561.1,373.4 561.1,337.35 				"/>
			</g>
		</g>
	</g>
	<text transform="matrix(1 0 0 1 514.3466 387.5559)" class="st7 st8">mapping</text>
</g>
<g>
	<g>
		<line class="st9" x1="602.89" y1="444.87" x2="699.43" y2="444.87"/>
		<g>
			<g>
				<line class="st9" x1="602.89" y1="444.87" x2="602.89" y2="441.89"/>
				<line class="st10" x1="725.39" y1="359.69" x2="725.39" y2="359.13"/>
			</g>
		</g>
	</g>
	<g>
		<g>
			<text transform="matrix(1 0 0 1 584.7025 446.5709)" class="st11 st12">0.0</text>
			<text transform="matrix(1 0 0 1 584.7025 327.3565)" class="st11 st12">0.8</text>
		</g>
		<line class="st9" x1="602.89" y1="444.87" x2="602.89" y2="325.66"/>
		<g>
			<g>
				<line class="st9" x1="602.89" y1="444.87" x2="605.31" y2="444.87"/>
				<line class="st13" x1="505.26" y1="269.59" x2="505.47" y2="269.59"/>
				<line class="st13" x1="505.38" y1="269.47" x2="505.38" y2="269.62"/>
				<line class="st13" x1="505.29" y1="269.59" x2="505.49" y2="269.59"/>
				<line class="st13" x1="505.19" y1="269.59" x2="505.39" y2="269.59"/>
				<line class="st13" x1="505.28" y1="269.59" x2="505.48" y2="269.59"/>
				<line class="st10" x1="724.84" y1="358.95" x2="725.9" y2="359.77"/>
			</g>
		</g>
	</g>
	<g>
		<g>
			<g>
				<rect x="665.32" y="381.29" class="st14" width="23.17" height="63.58"/>
			</g>
		</g>
		<g>
			<g>
				<rect x="639.58" y="339.57" class="st15" width="23.17" height="105.31"/>
			</g>
		</g>
		<g>
			<g>
				<rect x="613.83" y="393.21" class="st16" width="23.17" height="51.66"/>
			</g>
		</g>
	</g>
</g>
<text transform="matrix(0.9397 -0.342 0.342 0.9397 608.0913 464.6189)" class="st11 st17">cell 1</text>
<text transform="matrix(0.9397 -0.342 0.342 0.9397 663.5189 464.6184)" class="st11 st17">cell 3</text>
<text transform="matrix(0.9397 -0.342 0.342 0.9397 635.9525 464.6179)" class="st11 st17">cell 2</text>
<text transform="matrix(1 0 0 1 590.4391 310.5919)" class="st11 st12">Capturing probabilities</text>
<g class="st18">
	<g>
		<g>
			<line class="st19" x1="281.34" y1="299.38" x2="283.02" y2="302.02"/>
			<line class="st19" x1="285.1" y1="298.56" x2="287.22" y2="303.87"/>
			<line class="st19" x1="288.98" y1="300.08" x2="290.41" y2="304.91"/>
			<line class="st19" x1="292.65" y1="302.51" x2="293.2" y2="304.82"/>
			<line class="st19" x1="298.2" y1="301.25" x2="298.54" y2="304.04"/>
			<line class="st19" x1="300.8" y1="297.55" x2="301.19" y2="303.22"/>
			<line class="st19" x1="303.8" y1="294.85" x2="303.88" y2="300.63"/>
			<line class="st19" x1="307.01" y1="293.98" x2="306.87" y2="297.56"/>
			<line class="st19" x1="310.23" y1="294.19" x2="310.12" y2="295.28"/>
			<line class="st19" x1="313.43" y1="294.58" x2="313.2" y2="296.11"/>
			<g>
				<path class="st20" d="M307.62,294.34l-0.12-0.64c0.26,0,0.52-0.01,0.79,0.02l-0.04,0.64
					C308.04,294.33,307.82,294.33,307.62,294.34z"/>
			</g>
			<g>
				<path class="st20" d="M307.5,293.69c-4.27,0.09-6.34,2.7-8.01,5.15c-1.76,2.57-3.1,4.99-6.32,5.71
					c-1.61,0.39-2.98,0.2-4.26-0.29c-1.27-0.48-2.48-1.26-3.91-1.89c-1.02-0.45-2.14-0.81-3.41-0.84l0.47,0.65l0.31,0.43
					c0.64,0.1,1.26,0.28,1.85,0.5c1.5,0.55,2.8,1.34,4.2,1.84c1.39,0.51,2.99,0.69,4.89,0.24c3.8-0.86,5.36-3.52,7.21-6.15
					c1.68-2.37,3.54-4.62,7.09-4.69L307.5,293.69z"/>
			</g>
			<g>
				<path class="st21" d="M314.93,294.5c-0.13-0.02-0.27-0.05-0.41-0.07c-2.35-0.39-4.2,0.07-5.67,0.91
					c-1.48,0.83-2.6,2.05-3.63,3.27c-2.01,2.38-3.6,4.63-6.88,5.02c-3.27,0.44-5.37-1.36-7.91-3.15c-1.26-0.87-2.56-1.77-4.18-2.18
					c-1.61-0.39-3.68-0.38-6.13,1.24l0.39,0.52c1.94-1.27,3.69-1.33,5.13-1c1.45,0.35,2.67,1.13,3.89,1.97
					c1.32,0.9,2.59,1.85,4.01,2.5c1.41,0.65,2.95,0.99,4.9,0.74c3.87-0.45,5.7-2.95,7.82-5.37c2.02-2.31,4.26-4.47,8.17-3.84
					c0.14,0.03,0.27,0.05,0.41,0.08C314.86,294.92,314.89,294.7,314.93,294.5z"/>
			</g>
			<g>
				<path class="st20" d="M314.54,296.87c-1.32-1.62-3.22-2.96-6.25-3.16l-0.04,0.64c3.07,0.2,4.8,1.87,6.08,3.84
					C314.4,297.74,314.47,297.3,314.54,296.87z"/>
			</g>
		</g>
	</g>
</g>
<g class="st18">
	<g>
		<g>
			<line class="st19" x1="278.85" y1="333.98" x2="280.53" y2="336.62"/>
			<line class="st19" x1="282.61" y1="333.16" x2="284.73" y2="338.47"/>
			<line class="st19" x1="286.49" y1="334.68" x2="287.92" y2="339.52"/>
			<line class="st19" x1="290.16" y1="337.12" x2="290.71" y2="339.43"/>
			<line class="st19" x1="295.71" y1="335.85" x2="296.05" y2="338.64"/>
			<line class="st19" x1="298.31" y1="332.16" x2="298.7" y2="337.82"/>
			<line class="st19" x1="301.31" y1="329.46" x2="301.39" y2="335.23"/>
			<line class="st19" x1="304.52" y1="328.58" x2="304.37" y2="332.16"/>
			<line class="st19" x1="307.74" y1="328.8" x2="307.63" y2="329.89"/>
			<line class="st19" x1="310.94" y1="329.19" x2="310.71" y2="330.71"/>
			<g>
				<path class="st20" d="M305.13,328.94l-0.12-0.64c0.26,0,0.52-0.01,0.79,0.02l-0.04,0.64
					C305.55,328.94,305.33,328.93,305.13,328.94z"/>
			</g>
			<g>
				<path class="st20" d="M305.01,328.3c-4.27,0.09-6.34,2.7-8.01,5.15c-1.76,2.57-3.1,4.99-6.32,5.71
					c-1.61,0.39-2.98,0.2-4.26-0.29c-1.27-0.48-2.48-1.26-3.91-1.89c-1.02-0.45-2.14-0.81-3.41-0.84l0.47,0.65l0.31,0.43
					c0.64,0.1,1.26,0.28,1.85,0.5c1.5,0.55,2.8,1.34,4.2,1.84c1.39,0.51,2.99,0.69,4.89,0.24c3.8-0.86,5.36-3.52,7.21-6.15
					c1.68-2.37,3.54-4.62,7.09-4.69L305.01,328.3z"/>
			</g>
			<g>
				<path class="st21" d="M312.44,329.1c-0.13-0.02-0.27-0.05-0.41-0.07c-2.35-0.39-4.2,0.07-5.67,0.91
					c-1.48,0.83-2.6,2.05-3.63,3.27c-2.01,2.38-3.6,4.63-6.88,5.02c-3.27,0.44-5.37-1.36-7.91-3.15c-1.26-0.87-2.56-1.77-4.19-2.18
					c-1.61-0.39-3.68-0.38-6.13,1.24l0.39,0.52c1.94-1.27,3.69-1.33,5.13-1c1.45,0.35,2.67,1.13,3.89,1.97
					c1.32,0.9,2.59,1.85,4.01,2.5c1.41,0.65,2.95,0.99,4.9,0.74c3.87-0.45,5.7-2.95,7.82-5.37c2.02-2.31,4.26-4.47,8.17-3.84
					c0.14,0.03,0.27,0.05,0.41,0.08C312.37,329.52,312.4,329.31,312.44,329.1z"/>
			</g>
			<g>
				<path class="st20" d="M312.05,331.47c-1.32-1.62-3.22-2.96-6.25-3.16l-0.04,0.64c3.07,0.2,4.8,1.87,6.08,3.84
					C311.91,332.35,311.98,331.91,312.05,331.47z"/>
			</g>
		</g>
	</g>
</g>
<g>
	<g>
		<g>
			<line class="st19" x1="259.09" y1="325.98" x2="261.94" y2="327.27"/>
			<line class="st19" x1="263.79" y1="322.23" x2="266.72" y2="327.14"/>
			<line class="st19" x1="268.51" y1="322.97" x2="270.48" y2="327.61"/>
			<line class="st19" x1="273.1" y1="324.58" x2="274.05" y2="326.75"/>
			<line class="st19" x1="279.54" y1="321.39" x2="280.72" y2="323.94"/>
			<line class="st19" x1="281.32" y1="316.76" x2="283.75" y2="321.9"/>
			<line class="st19" x1="283.39" y1="312.91" x2="285.92" y2="318.1"/>
			<line class="st19" x1="286.14" y1="310.53" x2="287.75" y2="313.73"/>
			<line class="st19" x1="289.28" y1="308.93" x2="289.78" y2="309.91"/>
			<line class="st19" x1="292.41" y1="307.31" x2="293.12" y2="308.68"/>
			<g>
				<path class="st20" d="M286.91,310.51l-0.43-0.5c0.24-0.14,0.5-0.28,0.75-0.41l0.29,0.57
					C287.31,310.29,287.1,310.4,286.91,310.51z"/>
			</g>
			<g>
				<path class="st20" d="M286.47,310.02c-3.98,2.29-5.07,5.45-6.17,8.53c-1.14,3.16-2.26,6.17-6.32,7.95
					c-2.01,0.88-3.82,1.04-5.39,0.77c-1.46-0.28-2.78-0.94-4.49-0.96c-1.23,0.01-2.65,0.54-3.59,1.84l0.79,0.19l0.52,0.13
					c0.5-0.51,1.11-0.85,1.76-1.02c0.82-0.23,1.61-0.11,2.34,0.04c0.74,0.16,1.43,0.38,2.2,0.53c0.38,0.07,0.76,0.14,1.21,0.16
					c0.49,0,1-0.03,1.52-0.11c1.05-0.15,2.18-0.46,3.39-0.99c4.87-2.14,6.13-5.55,7.29-8.82c1.07-3,2.03-5.82,5.37-7.75
					L286.47,310.02z"/>
			</g>
			<g>
				<path class="st21" d="M293.66,306.28c-0.13,0.07-0.27,0.14-0.4,0.2c-4.55,2.41-5.64,5.77-6.75,9.07
					c-1.07,3.18-2.14,6.21-6.16,8.07c-4.02,1.85-7.02,0.7-10.14-0.55c-0.77-0.31-1.55-0.62-2.35-0.9c-0.4-0.14-0.81-0.26-1.22-0.37
					c-0.43-0.1-0.91-0.16-1.42-0.18c-1.02-0.02-2.18,0.12-3.61,0.9c-0.36,0.21-0.73,0.46-1.11,0.79c-0.38,0.33-0.79,0.76-1.09,1.16
					c-0.63,0.83-1.13,1.87-1.35,3.06l0.64,0.14c0.36-1.84,1.38-3.19,2.64-4.07c1.19-0.81,2.22-0.99,3.14-1.03
					c0.92-0.03,1.74,0.14,2.51,0.38c0.74,0.25,1.47,0.55,2.21,0.85c3.21,1.29,6.6,2.61,11.43,0.39c4.82-2.24,6.02-5.67,7.12-8.96
					c1.07-3.19,2.02-6.19,5.82-8.2c0.14-0.07,0.27-0.14,0.41-0.2C293.86,306.66,293.76,306.47,293.66,306.28z"/>
			</g>
			<g>
				<path class="st20" d="M294.82,308.39c-2.24-0.37-4.67-0.26-7.59,1.22l0.29,0.57c3-1.52,5.47-1.28,7.95-0.63
					C295.25,309.16,295.03,308.77,294.82,308.39z"/>
			</g>
		</g>
	</g>
</g>
<g>
	<g>
		<g>
			<g>
				<line class="st19" x1="262.93" y1="347.55" x2="263.61" y2="350.6"/>
				<line class="st19" x1="266.36" y1="347.77" x2="267.6" y2="353.34"/>
				<line class="st19" x1="270.16" y1="349.68" x2="271.23" y2="354.6"/>
				<line class="st19" x1="274.05" y1="352.22" x2="274.54" y2="354.54"/>
				<line class="st19" x1="280.4" y1="350.71" x2="280.9" y2="353.47"/>
				<line class="st19" x1="283.06" y1="346.77" x2="283.96" y2="352.38"/>
				<line class="st19" x1="285.99" y1="343.73" x2="286.78" y2="349.45"/>
				<line class="st19" x1="289.25" y1="342.4" x2="289.65" y2="345.97"/>
				<line class="st19" x1="292.66" y1="342.07" x2="292.75" y2="343.16"/>
				<line class="st19" x1="296.09" y1="341.84" x2="296.17" y2="343.38"/>
				<g>
					<path class="st20" d="M289.95,342.66l-0.23-0.62c0.27-0.05,0.55-0.08,0.83-0.11l0.06,0.64
						C290.39,342.59,290.16,342.62,289.95,342.66z"/>
				</g>
				<g>
					<path class="st20" d="M289.72,342.04c-4.43,0.78-6.3,3.52-8,6.15c-1.76,2.72-3.32,5.28-7.2,6.08
						c-3.88,0.81-6.37-0.92-9.03-2.77c-0.95-0.66-1.92-1.33-2.98-1.88l0.18,0.78l0.11,0.51c0.55,0.35,1.09,0.72,1.63,1.1
						c2.74,1.91,5.57,3.85,10.21,2.88c4.63-0.96,6.39-3.83,8.23-6.63c1.68-2.55,3.36-4.98,7.06-5.62L289.72,342.04z"/>
				</g>
				<g>
					<path class="st21" d="M297.64,341.44c-0.15,0-0.29,0-0.44,0.01c-5.1,0.25-7.26,3.1-9.19,5.8c-1.88,2.65-3.51,5.14-7.37,5.83
						c-3.86,0.7-6.3-1.06-8.95-2.94c-2.61-1.86-5.36-3.74-9.75-2.94l0.15,0.63c3.61-0.61,6.03,1.05,8.55,2.82
						c2.73,1.93,5.5,3.91,10.11,3.07c4.61-0.82,6.45-3.61,8.42-6.32c1.88-2.61,3.83-5.09,8.05-5.3c0.15-0.01,0.3-0.01,0.45-0.01
						C297.66,341.87,297.65,341.65,297.64,341.44z"/>
				</g>
				<g>
					<path class="st20" d="M297.76,343.84c-1.77-1.31-4.02-2.24-7.21-1.91l0.06,0.64c3.25-0.33,5.4,0.95,7.22,2.6
						C297.81,344.73,297.78,344.28,297.76,343.84z"/>
				</g>
			</g>
			<g>
				<line class="st19" x1="298.63" y1="341.99" x2="298.72" y2="345.11"/>
				<line class="st19" x1="302.14" y1="342.93" x2="301.98" y2="348.64"/>
				<line class="st19" x1="305.46" y1="345.9" x2="304.67" y2="350.88"/>
				<line class="st19" x1="307.63" y1="349.86" x2="306.77" y2="352.08"/>
				<line class="st19" x1="312.43" y1="352.77" x2="310.46" y2="354.76"/>
				<line class="st19" x1="317.13" y1="352.98" x2="312.55" y2="356.35"/>
				<line class="st19" x1="321.23" y1="354.65" x2="316.18" y2="357.44"/>
				<line class="st19" x1="323.68" y1="357.57" x2="320.39" y2="359"/>
				<line class="st19" x1="325" y1="360.91" x2="323.97" y2="361.28"/>
				<line class="st19" x1="326.11" y1="364.16" x2="324.65" y2="364.64"/>
				<g>
					<path class="st20" d="M323.65,358.35l0.52-0.4c0.13,0.26,0.25,0.54,0.36,0.81l-0.6,0.24
						C323.85,358.78,323.75,358.56,323.65,358.35z"/>
				</g>
				<g>
					<path class="st20" d="M324.18,357.95c-1.06-2.16-2.55-3.55-4.14-4.36c-1.6-0.82-3.26-1.07-4.83-1.14
						c-1.62-0.07-3.13,0.05-4.5,0.03c-1.38-0.01-2.57-0.15-3.82-0.65c-1.22-0.48-2.27-1.2-3.33-2.16c-1.05-0.96-2.07-2.13-3.18-3.31
						c-0.8-0.85-1.62-1.68-2.58-2.43l0.03,0.8l0.02,0.53c0.48,0.45,0.94,0.92,1.4,1.39c1.15,1.2,2.3,2.44,3.54,3.45
						c1.24,1.02,2.52,1.79,3.87,2.33c1.38,0.54,2.72,0.78,4.25,0.87c1.51,0.1,3.14,0.07,4.8,0.21c3.01,0.25,6.18,1.24,7.94,4.84
						L324.18,357.95z"/>
				</g>
				<g>
					<path class="st21" d="M326.89,365.49c-0.04-0.13-0.08-0.27-0.12-0.41c-0.75-2.32-1.98-3.94-3.42-5.05
						c-1.44-1.12-3.09-1.74-4.69-2.21c-1.55-0.46-3.06-0.79-4.39-1.27c-1.35-0.48-2.51-1.11-3.6-2.19c-1.1-1.07-1.66-2.1-2.17-3.34
						c-0.5-1.23-0.97-2.65-1.76-4.07c-0.78-1.41-1.85-2.79-3.35-3.81c-1.52-1.03-3.36-1.67-5.68-1.69l0.03,0.65
						c3.77,0.06,6.19,2.3,7.83,4.89c0.9,1.41,1.54,2.88,2.14,4.19c0.62,1.32,1.24,2.44,2.51,3.65c1.26,1.23,2.56,2.02,4.03,2.61
						c1.46,0.61,3.07,1.02,4.65,1.54c3.06,0.98,6.01,2.44,7.26,6.32c0.04,0.14,0.08,0.28,0.12,0.41
						C326.48,365.63,326.69,365.56,326.89,365.49z"/>
				</g>
				<g>
					<path class="st20" d="M324.61,366.26c0.78-2.02,1.17-4.34-0.07-7.5l-0.6,0.24c1.26,3.19,0.5,5.51-0.59,7.69
						C323.77,366.55,324.19,366.4,324.61,366.26z"/>
				</g>
			</g>
		</g>
	</g>
</g>
<g class="st18">
	<g>
		<g>
			<line class="st19" x1="303.14" y1="314.19" x2="303.02" y2="317.32"/>
			<line class="st19" x1="307.09" y1="315.4" x2="306.62" y2="321.09"/>
			<line class="st19" x1="310.72" y1="318.48" x2="310.08" y2="323.48"/>
			<line class="st19" x1="314" y1="322.3" x2="313.59" y2="324.64"/>
			<line class="st19" x1="321.36" y1="323.65" x2="320.64" y2="326.36"/>
			<line class="st19" x1="325.98" y1="321.41" x2="324.28" y2="326.83"/>
			<line class="st19" x1="330.81" y1="320.35" x2="328.45" y2="325.62"/>
			<line class="st19" x1="336.62" y1="323.41" x2="333.51" y2="325.19"/>
			<line class="st19" x1="337.18" y1="330.37" x2="336.1" y2="330.19"/>
			<line class="st19" x1="336.38" y1="334.27" x2="334.87" y2="333.97"/>
			<g>
				<path class="st20" d="M336.85,324.78c0.16-0.18,0.33-0.37,0.48-0.56c0.22,0.52,0.38,1.09,0.46,1.68l-0.63,0.17
					C337.11,325.62,337,325.19,336.85,324.78z"/>
			</g>
			<g>
				<path class="st20" d="M337.33,324.22c-0.9-2.2-2.78-3.45-4.57-3.81c-0.86-0.17-1.65-0.3-2.38-0.37c-0.41-0.06-0.58,0-0.84,0.02
					c-0.24,0.03-0.48,0.07-0.71,0.11c-1.85,0.34-3.43,1.08-4.95,1.84c-3.13,1.58-5.85,3.17-10.21,2.38
					c-4.37-0.73-6.4-3.13-8.81-5.69c-0.86-0.92-1.77-1.81-2.84-2.62l-0.02,0.8l-0.02,0.53c0.53,0.48,1.03,0.98,1.53,1.49
					c1.26,1.29,2.48,2.62,4.02,3.72c1.55,1.09,3.41,1.96,6.02,2.4c2.61,0.45,4.65,0.28,6.48-0.23c1.83-0.51,3.42-1.35,5.04-2.14
					c1.48-0.72,2.97-1.39,4.61-1.7c0.53-0.02,1.12,0,1.75,0.05c0.62,0.07,1.31,0.11,2.03,0.39c1.39,0.48,2.75,1.62,3.37,3.39
					C337.02,324.6,337.18,324.41,337.33,324.22z"/>
			</g>
			<g>
				<path class="st21" d="M336.35,336.04c0.03-0.16,0.07-0.32,0.1-0.48c0.28-1.38,0.37-2.61,0.31-3.73
					c-0.01-0.28-0.04-0.55-0.07-0.82l-0.05-0.4l-0.01-0.65c-0.02-0.88-0.13-1.67-0.34-2.34c-0.43-1.35-1.21-2.28-2.17-2.83
					c-0.96-0.56-2.13-0.61-3.16-0.38c-1,0.23-1.83,0.57-2.51,0.9c-0.3,0.18-0.71,0.31-1.12,0.44c-0.4,0.12-0.81,0.23-1.22,0.32
					c-1.66,0.36-3.42,0.39-5.57-0.18c-4.29-1.1-6.11-3.67-8.3-6.41c-2.15-2.68-4.65-5.51-10.17-5.89l-0.01,0.65
					c4.5,0.36,6.73,2.77,8.83,5.33c1.14,1.4,2.25,2.82,3.69,4.05c1.45,1.22,3.23,2.24,5.79,2.9c2.56,0.68,4.61,0.67,6.47,0.32
					c0.23-0.04,0.46-0.09,0.69-0.15c0.24-0.05,0.32-0.16,0.5-0.24c0.32-0.17,0.67-0.34,1.07-0.5c0.77-0.33,1.73-0.67,2.77-0.65
					c0.96,0.05,1.75,0.49,2.39,1.14c0.64,0.65,1.13,1.57,1.35,2.78c0.06,0.3,0.1,0.62,0.13,0.96c0.01,0.19,0.03,0.31,0.06,0.4
					l0.07,0.33c0.09,0.44,0.15,0.9,0.18,1.38c0.06,0.96-0.01,2-0.24,3.15c-0.04,0.16-0.07,0.33-0.11,0.48
					C335.93,335.96,336.15,336,336.35,336.04z"/>
			</g>
			<g>
				<path class="st20" d="M333.99,335.59c0.87-0.82,1.68-1.77,2.36-2.95c0.34-0.6,0.64-1.23,0.92-1.97
					c0.43-1.43,0.79-3.09,0.53-4.77l-0.63,0.17c0.23,1.61-0.16,3.2-0.59,4.5c-0.3,0.71-0.66,1.35-1.06,1.92
					c-0.8,1.14-1.78,2.04-2.83,2.87C333.12,335.44,333.55,335.52,333.99,335.59z"/>
			</g>
		</g>
	</g>
</g>
<path class="st22" d="M435.37,327.59"/>
<g>
	<g>
		<g>
			<line class="st19" x1="435.2" y1="323.8" x2="436" y2="326.83"/>
			<line class="st19" x1="438.21" y1="324.14" x2="439.11" y2="329.78"/>
			<line class="st19" x1="441.16" y1="326.52" x2="441.47" y2="331.55"/>
			<line class="st19" x1="443.59" y1="329.78" x2="443.51" y2="332.15"/>
			<line class="st19" x1="448.09" y1="330.08" x2="447.48" y2="332.82"/>
			<line class="st19" x1="451.32" y1="327.41" x2="449.58" y2="332.82"/>
			<line class="st19" x1="454.75" y1="325.94" x2="452.48" y2="331.25"/>
			<line class="st19" x1="457.73" y1="326.38" x2="456.02" y2="329.52"/>
			<line class="st19" x1="460.23" y1="327.89" x2="459.62" y2="328.8"/>
			<line class="st19" x1="462.58" y1="329.66" x2="461.59" y2="330.85"/>
			<g>
				<path class="st20" d="M458.07,326.94l0.19-0.62c0.21,0.1,0.43,0.21,0.64,0.33l-0.33,0.55
					C458.4,327.11,458.23,327.02,458.07,326.94z"/>
			</g>
			<g>
				<path class="st20" d="M458.26,326.32c-1.74-0.84-3.37-0.78-4.75-0.34c-1.4,0.47-2.58,1.3-3.66,2.22
					c-2.24,1.87-3.86,3.8-6.3,3.68c-1.24-0.03-2.19-0.55-3.12-1.31c-0.94-0.78-1.84-1.78-2.9-2.79c-0.76-0.72-1.57-1.38-2.52-1.93
					l0.23,0.77l0.15,0.51c0.48,0.35,0.93,0.73,1.37,1.12c0.55,0.48,1.08,1,1.61,1.51c0.53,0.5,1.03,0.94,1.57,1.37
					c1.06,0.81,2.14,1.36,3.59,1.4c1.44,0.08,2.58-0.43,3.7-1.15c1.12-0.76,2.2-1.74,3.37-2.68c1.06-0.84,2.2-1.63,3.43-2.01
					c0.63-0.21,1.27-0.31,1.95-0.28c0.68,0.02,1.38,0.19,2.1,0.53L458.26,326.32z"/>
			</g>
			<g>
				<path class="st21" d="M463.81,330.3l-0.28-0.26c-1.64-1.48-3.39-1.85-4.93-1.73c-1.57,0.15-2.97,0.8-4.28,1.56
					c-2.54,1.45-4.45,3.04-6.86,2.51c-2.41-0.49-3.48-2.75-5.19-5.14c-0.84-1.13-1.8-2.32-3.09-3.08c-1.28-0.79-2.9-1.15-4.88-0.71
					l0.19,0.62c3.23-0.69,5.3,1.31,6.95,3.48c0.9,1.17,1.7,2.44,2.6,3.41c0.9,1.02,1.88,1.71,3.3,2.04
					c1.41,0.32,2.62,0.04,3.85-0.48c1.23-0.54,2.46-1.32,3.79-2.04c1.26-0.66,2.6-1.27,3.97-1.37c0.7-0.07,1.39-0.01,2.09,0.21
					c0.71,0.2,1.4,0.61,2.07,1.2l0.28,0.25C463.52,330.61,463.67,330.45,463.81,330.3z"/>
			</g>
			<g>
				<path class="st20" d="M462.2,332.09c-0.11-1.92-0.91-4.01-3.3-5.43l-0.33,0.55c2.39,1.44,2.89,3.71,2.75,5.88
					C461.61,332.75,461.91,332.41,462.2,332.09z"/>
			</g>
		</g>
	</g>
</g>
<g class="st18">
	<g>
		<g>
			<line class="st19" x1="425.69" y1="322.67" x2="422.62" y2="323.27"/>
			<line class="st19" x1="425.33" y1="326.03" x2="419.69" y2="326.97"/>
			<line class="st19" x1="423.13" y1="329.61" x2="418.12" y2="330.2"/>
			<line class="st19" x1="420.1" y1="332.94" x2="417.73" y2="333.05"/>
			<line class="st19" x1="420.04" y1="338.69" x2="417.28" y2="338.2"/>
			<line class="st19" x1="422.6" y1="342.52" x2="417.22" y2="340.69"/>
			<line class="st19" x1="423.61" y1="346.73" x2="418.45" y2="344.12"/>
			<line class="st19" x1="422.81" y1="350.09" x2="419.69" y2="348.32"/>
			<line class="st19" x1="421.26" y1="352.81" x2="420.31" y2="352.27"/>
			<line class="st19" x1="419.71" y1="355.53" x2="418.37" y2="354.77"/>
			<g>
				<path class="st20" d="M422.22,350.46l0.63,0.19c-0.11,0.22-0.23,0.45-0.36,0.67l-0.56-0.32
					C422.03,350.82,422.13,350.64,422.22,350.46z"/>
			</g>
			<g>
				<path class="st20" d="M422.84,350.65c0.88-1.81,1.18-3.72,0.94-5.45c-0.23-1.74-1.02-3.22-1.87-4.48
					c-0.91-1.32-1.86-2.43-2.61-3.6c-0.74-1.17-1.23-2.38-1.3-4.06c-0.19-3.34,1.66-5.54,3.65-8.03c0.71-0.89,1.41-1.81,1.99-2.81
					l-0.79,0.16l-0.52,0.1c-0.37,0.52-0.76,1.03-1.15,1.54c-2.04,2.57-4.05,5.14-3.82,9.07c0.08,1.97,0.61,3.34,1.38,4.66
					c0.77,1.31,1.74,2.54,2.61,3.93c0.77,1.26,1.42,2.68,1.61,4.18c0.21,1.5-0.01,3.08-0.74,4.6L422.84,350.65z"/>
			</g>
			<g>
				<path class="st21" d="M419.29,356.92c0.07-0.11,0.14-0.23,0.2-0.34c2.27-3.99,1.17-7.17,0.08-10.26
					c-0.54-1.49-1.12-2.89-1.51-4.19c-0.42-1.3-0.6-2.48-0.34-3.99c0.46-2.99,2.55-4.8,4.77-7.1c2.17-2.24,4.26-5.01,3.58-9.31
					l-0.63,0.13c0.5,3.53-1.3,5.93-3.33,8.13c-1.1,1.2-2.26,2.35-3.17,3.63s-1.57,2.67-1.86,4.42c-0.3,1.75-0.11,3.05,0.26,4.53
					c0.36,1.48,0.92,3.03,1.46,4.57c1.04,2.99,2.02,5.81,0.13,9.13c-0.07,0.12-0.14,0.23-0.21,0.35
					C418.92,356.71,419.11,356.82,419.29,356.92z"/>
			</g>
			<g>
				<path class="st20" d="M417.19,355.75c1.99-0.7,3.86-1.89,5.3-4.43l-0.56-0.32c-1.48,2.6-3.59,3.53-5.91,4.11
					C416.41,355.33,416.8,355.54,417.19,355.75z"/>
			</g>
		</g>
	</g>
</g>
<g>
	<g>
		<g>
			<line class="st19" x1="473.73" y1="330.8" x2="471.33" y2="332.81"/>
			<line class="st19" x1="474.48" y1="333.1" x2="470.3" y2="337"/>
			<line class="st19" x1="474.2" y1="336.64" x2="470.7" y2="340.28"/>
			<line class="st19" x1="473.82" y1="340.75" x2="472.27" y2="342.55"/>
			<line class="st19" x1="477.89" y1="343.63" x2="476.14" y2="345.83"/>
			<line class="st19" x1="481.99" y1="342.76" x2="477.72" y2="346.51"/>
			<line class="st19" x1="485.97" y1="344.58" x2="480.44" y2="346.27"/>
			<line class="st19" x1="487.11" y1="348.97" x2="483.58" y2="348.34"/>
			<line class="st19" x1="485.54" y1="352.88" x2="484.61" y2="352.31"/>
			<line class="st19" x1="483.63" y1="355.46" x2="482.46" y2="354.46"/>
			<g>
				<path class="st20" d="M486.57,349.78l0.68-0.05c-0.09,0.38-0.19,0.76-0.34,1.15l-0.6-0.23
					C486.42,350.36,486.51,350.06,486.57,349.78z"/>
			</g>
			<g>
				<path class="st20" d="M487.25,349.73c0.35-1.56,0.13-2.99-0.35-4.1c-0.49-1.11-1.25-1.91-2.06-2.43
					c-0.83-0.53-1.64-0.71-2.39-0.74c-0.76-0.02-1.47,0.08-2.16,0.24c-1.41,0.32-2.66,0.82-3.93,0.94
					c-1.26,0.13-2.66-0.22-3.89-1.29c-2.5-2.18-2.05-5.05-1.34-7.81c0.25-1,0.55-2,0.74-2.97l-0.62,0.51l-0.41,0.33
					c-0.15,0.54-0.31,1.1-0.47,1.67c-0.78,2.84-1.35,6.1,1.68,8.76c1.5,1.3,3.17,1.72,4.49,1.55c1.37-0.14,2.69-0.66,4.16-0.9
					c0.67-0.11,1.36-0.16,2.07-0.05c0.71,0.12,1.45,0.41,2.1,0.91c1.31,0.96,2.29,2.95,1.71,5.42L487.25,349.73z"/>
			</g>
			<g>
				<path class="st21" d="M483.04,356.62l0.24-0.25c1.36-1.48,2.04-3.48,1.86-5.34c-0.09-0.9-0.35-1.89-0.82-2.58
					c-0.45-0.72-1.06-1.26-1.7-1.64c-1.26-0.74-2.63-0.86-3.56-0.71c-0.97,0.11-1.73,0.09-2.72-0.69c-0.98-0.76-1.78-2.04-2-3.35
					c-0.25-1.32-0.11-2.73,0.1-4.16c0.41-2.85,1.07-5.57-0.63-7.92l-0.5,0.41c1.39,2,0.76,4.4,0.32,7.13
					c-0.24,1.47-0.42,3-0.12,4.48c0.15,0.74,0.41,1.46,0.85,2.15c0.46,0.71,1,1.29,1.58,1.75c0.59,0.46,1.04,0.66,1.48,0.73
					c0.22,0.04,0.44,0.04,0.66,0.02c0.2-0.05,0.42-0.11,0.67-0.14c1-0.13,2.45,0.2,3.58,1.12c1.13,0.86,1.87,2.4,1.98,3.93
					c0.12,1.53-0.39,3.14-1.5,4.35l-0.24,0.25C482.72,356.33,482.88,356.48,483.04,356.62z"/>
			</g>
			<g>
				<path class="st20" d="M481.25,355.01c0.95-0.02,1.92-0.18,2.9-0.74c0.96-0.57,2.01-1.5,2.76-3.39l-0.6-0.23
					c-0.73,1.83-1.82,2.66-2.85,3.11c-1.05,0.44-2.12,0.46-3.21,0.37C480.58,354.42,480.92,354.72,481.25,355.01z"/>
			</g>
		</g>
	</g>
</g>
<g>
	<g>
		<g>
			<line class="st19" x1="434.41" y1="352.01" x2="436.37" y2="354.44"/>
			<line class="st19" x1="437.19" y1="351.22" x2="440.17" y2="356.1"/>
			<line class="st19" x1="440.62" y1="352.43" x2="442.73" y2="357.01"/>
			<line class="st19" x1="443.81" y1="354.71" x2="444.57" y2="356.96"/>
			<line class="st19" x1="447.63" y1="353.52" x2="448.06" y2="356.29"/>
			<line class="st19" x1="449.37" y1="349.85" x2="449.86" y2="355.51"/>
			<line class="st19" x1="451.56" y1="347.15" x2="451.74" y2="352.92"/>
			<line class="st19" x1="453.93" y1="346.21" x2="453.89" y2="349.8"/>
			<line class="st19" x1="456.26" y1="346.27" x2="456.22" y2="347.37"/>
			<line class="st19" x1="458.54" y1="346.39" x2="458.45" y2="347.93"/>
			<g>
				<path class="st20" d="M454.38,346.55l-0.1-0.64c0.19-0.01,0.38-0.02,0.57-0.01l-0.02,0.64
					C454.69,346.54,454.53,346.54,454.38,346.55z"/>
			</g>
			<g>
				<path class="st20" d="M454.28,345.91c-3.13,0.23-4.72,2.77-5.84,5.22c-1.2,2.56-1.93,4.92-3.94,5.57
					c-1.01,0.35-1.93,0.15-2.98-0.28c-1.03-0.42-2.19-1.09-3.47-1.64c-0.93-0.4-1.91-0.73-2.95-0.85l0.53,0.6l0.35,0.4
					c0.56,0.14,1.09,0.3,1.63,0.51c1.34,0.51,2.6,1.18,3.74,1.61c1.16,0.43,2.18,0.64,3.35,0.24c2.32-0.75,3.23-3.37,4.52-5.98
					c1.15-2.36,2.57-4.59,5.16-4.77L454.28,345.91z"/>
			</g>
			<g>
				<path class="st21" d="M459.57,346.12l-0.28-0.02c-3.29-0.2-5.12,2.31-6.59,4.78c-1.45,2.41-2.58,4.66-4.8,5
					c-2.19,0.37-3.79-1.44-6.08-3.12c-1.11-0.82-2.36-1.58-3.77-1.86c-1.4-0.28-3.02-0.06-4.58,1.16l0.43,0.48
					c1.26-0.95,2.6-1.13,3.84-0.89c1.24,0.25,2.41,0.91,3.5,1.65c1.19,0.82,2.28,1.74,3.35,2.39c1.08,0.65,2.12,1.02,3.42,0.82
					c2.59-0.38,3.93-2.89,5.46-5.36c1.46-2.37,3.06-4.57,5.79-4.41c0.1,0.01,0.19,0.02,0.29,0.03
					C459.54,346.55,459.55,346.33,459.57,346.12z"/>
			</g>
			<g>
				<path class="st20" d="M459.44,348.53c-1.04-1.44-2.38-2.57-4.58-2.63l-0.02,0.64c2.23,0.06,3.47,1.52,4.53,3.32
					C459.4,349.41,459.42,348.97,459.44,348.53z"/>
			</g>
		</g>
	</g>
</g>
<g>
	<g>
		<g>
			<line class="st19" x1="414.79" y1="314.98" x2="417.7" y2="316.12"/>
			<line class="st19" x1="419.48" y1="310.22" x2="423.16" y2="314.59"/>
			<line class="st19" x1="425.3" y1="309.67" x2="427.56" y2="314.18"/>
			<line class="st19" x1="430.86" y1="310.82" x2="431.76" y2="313.01"/>
			<line class="st19" x1="439.34" y1="307.44" x2="440.2" y2="310.11"/>
			<line class="st19" x1="442.78" y1="302.81" x2="444.32" y2="308.28"/>
			<line class="st19" x1="446.72" y1="299.12" x2="448.07" y2="304.74"/>
			<line class="st19" x1="451.22" y1="297.19" x2="451.93" y2="300.71"/>
			<line class="st19" x1="455.97" y1="296.33" x2="456.15" y2="297.41"/>
			<line class="st19" x1="460.75" y1="295.65" x2="460.94" y2="297.18"/>
			<g>
				<path class="st20" d="M452.21,297.34l-0.34-0.58c0.37-0.09,0.76-0.17,1.15-0.25l0.12,0.63
					C452.82,297.2,452.51,297.27,452.21,297.34z"/>
			</g>
			<g>
				<path class="st20" d="M451.86,296.76c-6.16,1.51-8.67,4.75-10.87,7.8c-2.28,3.19-4.22,6.15-9.28,8.19
					c-2.6,1.07-4.48,1.29-6.26,1.38c-1.77,0.09-3.49-0.06-5.4,0.44c-1.35,0.36-2.82,1.14-3.95,2.69l0.79,0.16l0.52,0.11
					c0.63-0.64,1.29-1.13,2.02-1.46c1.82-0.85,3.62-0.82,5.47-1c1.9-0.19,3.91-0.45,7.05-1.73c3.02-1.23,5.08-2.63,6.69-4.16
					c1.61-1.54,2.77-3.19,3.97-4.81c2.19-2.95,4.45-5.79,9.6-7.03L451.86,296.76z"/>
			</g>
			<g>
				<path class="st21" d="M462.89,295.08c-0.2,0.02-0.41,0.04-0.62,0.06c-3.53,0.4-6.05,1.43-7.99,2.74c-1.94,1.3-3.31,2.87-4.6,4.4
					c-2.51,3.01-4.66,5.84-9.86,7.49c-5.18,1.72-8.57,0.71-12.37-0.26c-1.88-0.45-3.87-0.88-6.33-0.35
					c-1.22,0.28-2.58,0.81-3.99,1.94c-0.7,0.56-1.4,1.31-2.03,2.25c-0.62,0.95-1.14,2.11-1.45,3.41l0.64,0.12
					c0.49-2.04,1.57-3.61,2.67-4.61c1.12-1.02,2.26-1.56,3.32-1.88c2.14-0.6,4.01-0.33,5.82,0.04c1.95,0.43,3.9,0.97,6.12,1.1
					s4.7-0.14,7.8-1.15c6.19-1.97,8.67-5.07,11.29-8.16c2.53-2.93,5.15-5.77,11.03-6.44c0.21-0.02,0.42-0.04,0.62-0.06
					C462.94,295.5,462.92,295.29,462.89,295.08z"/>
			</g>
			<g>
				<path class="st20" d="M463.18,297.47c-2.54-1.11-5.71-1.78-10.17-0.96l0.12,0.63c4.53-0.83,7.58,0.2,10.23,1.65
					C463.3,298.35,463.24,297.9,463.18,297.47z"/>
			</g>
		</g>
	</g>
</g>
<g class="st18">
	<g>
		<g>
			<line class="st19" x1="457.56" y1="304.87" x2="456.69" y2="307.87"/>
			<line class="st19" x1="460.4" y1="306.74" x2="458.74" y2="312.2"/>
			<line class="st19" x1="462.69" y1="310.25" x2="461.16" y2="315.05"/>
			<line class="st19" x1="464.7" y1="314.35" x2="463.94" y2="316.59"/>
			<line class="st19" x1="470.57" y1="316.31" x2="469.42" y2="318.87"/>
			<line class="st19" x1="474.93" y1="314.65" x2="472.19" y2="319.62"/>
			<line class="st19" x1="479.25" y1="314.31" x2="475.93" y2="319.03"/>
			<line class="st19" x1="482.75" y1="315.94" x2="480.33" y2="318.58"/>
			<line class="st19" x1="485.44" y1="318.79" x2="484.59" y2="319.48"/>
			<line class="st19" x1="487.7" y1="322.14" x2="486.35" y2="322.88"/>
			<g>
				<path class="st20" d="M483.07,316.7l0.31-0.58c0.24,0.2,0.47,0.42,0.7,0.66l-0.46,0.45
					C483.44,317.04,483.26,316.85,483.07,316.7z"/>
			</g>
			<g>
				<path class="st20" d="M483.38,316.11c-1.96-1.67-3.91-2.2-5.64-2.21c-1.74-0.01-3.27,0.51-4.72,1.07
					c-3,1.18-5.42,2.59-8.96,1.38c-3.61-1.18-4.86-3.86-6.21-6.78c-0.49-1.04-0.99-2.1-1.63-3.1l-0.22,0.77l-0.15,0.51
					c0.3,0.57,0.58,1.16,0.86,1.76c1.4,3.02,2.82,6.05,7.14,7.45c2.13,0.72,3.81,0.69,5.41,0.34c1.58-0.34,3.07-1.01,4.62-1.58
					c1.42-0.52,2.86-0.94,4.41-0.92c1.54,0.03,3.18,0.51,4.78,1.89L483.38,316.11z"/>
			</g>
			<g>
				<path class="st21" d="M488.82,323.68c-0.07-0.16-0.15-0.33-0.22-0.49c-1.35-2.8-3.31-4.17-5.12-4.75
					c-1.83-0.59-3.58-0.45-5.21-0.18c-1.58,0.27-3.03,0.67-4.44,0.82c-1.42,0.15-2.79,0.04-4.4-0.68c-3.22-1.39-4.4-4.09-5.68-7.02
					c-1.28-2.86-2.69-5.84-6.87-7.32l-0.17,0.62c3.41,1.25,4.66,3.88,5.9,6.63c0.67,1.48,1.35,3.02,2.35,4.36
					c1,1.35,2.31,2.48,4.22,3.32c1.89,0.84,3.44,1,5.01,0.89c1.56-0.12,3.12-0.49,4.76-0.7c1.58-0.2,3.2-0.26,4.79,0.29
					c1.58,0.54,3.19,1.72,4.27,3.99c0.07,0.16,0.14,0.32,0.21,0.48C488.44,323.86,488.63,323.77,488.82,323.68z"/>
			</g>
			<g>
				<path class="st20" d="M486.64,324.68c0.5-2.26,0.04-5.24-2.56-7.91l-0.46,0.45c1.29,1.31,1.96,2.78,2.2,4.15
					c0.23,1.38,0.03,2.69-0.39,3.88C485.83,325.06,486.24,324.87,486.64,324.68z"/>
			</g>
		</g>
	</g>
</g>
<g>
	<g>
		<g>
			<line class="st19" x1="364.18" y1="368.06" x2="362.61" y2="370.77"/>
			<line class="st19" x1="366.83" y1="370.48" x2="364.51" y2="375.71"/>
			<line class="st19" x1="369.32" y1="374.37" x2="367.58" y2="379.1"/>
			<line class="st19" x1="371.93" y1="378.77" x2="371.17" y2="381.02"/>
			<line class="st19" x1="379.22" y1="381.14" x2="378.13" y2="383.73"/>
			<line class="st19" x1="384.19" y1="379.68" x2="381.59" y2="384.73"/>
			<line class="st19" x1="389.03" y1="379.46" x2="386" y2="384.37"/>
			<line class="st19" x1="393.16" y1="381.16" x2="390.97" y2="384"/>
			<line class="st19" x1="396.95" y1="385.11" x2="396.04" y2="385.71"/>
			<line class="st19" x1="398.89" y1="391.49" x2="397.35" y2="391.47"/>
			<g>
				<path class="st20" d="M393.7,382.02l0.23-0.64c0.32,0.24,0.65,0.52,0.98,0.83l-0.44,0.47
					C394.22,382.43,393.96,382.22,393.7,382.02z"/>
			</g>
			<g>
				<path class="st20" d="M393.93,381.38c-1.34-1.01-2.48-1.49-3.55-1.84c-1.08-0.34-2.1-0.5-3.08-0.53
					c-1.95-0.05-3.68,0.39-5.31,0.9c-3.41,1.03-6.17,2.4-10.69,0.88c-4.59-1.54-6.43-4.7-7.65-7.98c-0.45-1.18-0.82-2.39-1.24-3.54
					l-0.43,0.68l-0.28,0.45c0.2,0.65,0.39,1.35,0.63,2.03c0.58,1.73,1.35,3.5,2.71,5.09s3.31,2.97,6.05,3.89
					c2.73,0.92,4.8,0.97,6.67,0.71c1.87-0.27,3.57-0.86,5.32-1.36c1.6-0.45,3.22-0.82,4.95-0.77c0.86,0.03,1.75,0.16,2.67,0.46
					c0.91,0.29,1.91,0.75,3,1.59L393.93,381.38z"/>
			</g>
			<g>
				<path class="st21" d="M398.52,395.06c0.13-0.33,0.25-0.66,0.34-1.01c0.4-1.47,0.38-2.83,0.16-3.97s-0.62-2.1-1.1-2.9
					c-0.48-0.79-1.06-1.46-1.63-1.96c-0.57-0.49-1.16-0.85-1.72-1.12c-2.29-1.03-4.2-0.73-5.99-0.48
					c-3.52,0.56-6.49,1.32-10.47-0.38c-4.05-1.63-5.84-4.47-7.49-7.59c-0.82-1.54-1.64-3.11-2.71-4.55
					c-1.08-1.45-2.39-2.76-4.18-3.98l-0.34,0.55c3,2.05,4.32,4.77,5.87,7.78c0.84,1.62,1.77,3.24,3.11,4.7
					c1.35,1.46,3.11,2.7,5.5,3.69c2.37,0.99,4.33,1.33,6.22,1.33c1.87,0.01,3.66-0.33,5.46-0.55c1.73-0.19,3.57-0.29,5.52,0.82
					c0.95,0.54,1.96,1.51,2.64,2.86c0.67,1.35,1.16,3.25,0.54,5.57c-0.09,0.33-0.2,0.64-0.33,0.95
					C398.12,394.91,398.33,394.98,398.52,395.06z"/>
			</g>
			<g>
				<path class="st20" d="M396.27,394.22c1.26-1.22,2.08-3.3,1.91-5.54c-0.08-1.12-0.38-2.29-0.97-3.46
					c-0.57-1.12-1.36-2.15-2.29-3.02l-0.44,0.47c0.92,0.86,1.67,1.88,2.17,2.97c0.52,1.12,0.73,2.24,0.72,3.29
					c-0.01,2.09-1.01,3.91-2.34,4.83C395.44,393.91,395.86,394.07,396.27,394.22z"/>
			</g>
		</g>
	</g>
</g>
<g class="st18">
	<g>
		<g>
			<line class="st19" x1="388.34" y1="368.64" x2="387.42" y2="365.65"/>
			<line class="st19" x1="386.75" y1="368.25" x2="384.26" y2="363.1"/>
			<line class="st19" x1="383.94" y1="366.74" x2="381.3" y2="362.44"/>
			<line class="st19" x1="380.47" y1="365.07" x2="379.13" y2="363.12"/>
			<line class="st19" x1="377.29" y1="367.79" x2="375.46" y2="365.67"/>
			<line class="st19" x1="378.25" y1="371.64" x2="374.03" y2="367.84"/>
			<line class="st19" x1="379.38" y1="374.4" x2="374.5" y2="371.32"/>
			<line class="st19" x1="379.62" y1="375.92" x2="376.31" y2="374.53"/>
			<line class="st19" x1="379.26" y1="377.02" x2="378.19" y2="376.77"/>
			<line class="st19" x1="379.09" y1="378.16" x2="377.55" y2="378.07"/>
			<g>
				<path class="st20" d="M379.22,376.01l0.62,0.18c-0.02,0.09-0.04,0.18-0.07,0.26l-0.61-0.21
					C379.19,376.16,379.21,376.09,379.22,376.01z"/>
			</g>
			<g>
				<path class="st20" d="M379.84,376.19c0.14-0.72-0.16-1.51-0.57-2.51s-0.9-2.21-1.26-3.48c-0.76-2.59-0.82-5.43,1.24-6.84
					c2.13-1.48,4.83-0.37,6.88,1.39c0.75,0.62,1.43,1.31,2.01,1.95l-0.2-0.78l-0.13-0.51c-0.34-0.38-0.72-0.78-1.13-1.15
					c-1.03-0.95-2.29-1.78-3.66-2.13s-2.85-0.18-4.12,0.7c-1.23,0.85-1.89,2.11-2.07,3.49c-0.19,1.38,0.08,2.84,0.52,4.18
					c0.4,1.23,0.93,2.33,1.33,3.23c0.4,0.91,0.68,1.63,0.55,2.29L379.84,376.19z"/>
			</g>
			<g>
				<path class="st21" d="M379.4,378.66c0.01-0.05,0.01-0.09,0.01-0.14c0.01-0.77-0.5-1.45-1.22-2.32
					c-0.72-0.86-1.66-1.87-2.43-3.04c-0.75-1.12-1.35-2.38-1.42-3.69c-0.08-1.29,0.38-2.62,1.51-3.58c1.13-0.95,2.29-1.08,3.44-0.84
					s2.34,0.83,3.54,1.46c2.37,1.28,4.65,2.72,5.93,2.58l-0.16-0.63c-1.19,0.11-3.07-1.29-5.35-2.55c-1.22-0.68-2.54-1.31-3.82-1.57
					c-1.28-0.25-2.62-0.12-4.01,1.06s-1.97,2.81-1.87,4.29c0.1,1.49,0.82,2.82,1.65,3.95c0.81,1.1,1.72,2,2.41,2.77
					s1.15,1.39,1.15,2.1c0,0.05,0,0.1-0.01,0.15C378.98,378.67,379.19,378.67,379.4,378.66z"/>
			</g>
			<g>
				<path class="st20" d="M377,378.72c1.38-0.8,2.45-1.31,2.77-2.27l-0.61-0.21c-0.35,1.07-1.76,1.55-3.49,2.52
					C376.11,378.75,376.56,378.73,377,378.72z"/>
			</g>
		</g>
	</g>
</g>
<g>
	<g>
		<g>
			<line class="st19" x1="366.62" y1="391.35" x2="366.07" y2="388.27"/>
			<line class="st19" x1="363.44" y1="391.23" x2="361.44" y2="385.88"/>
			<line class="st19" x1="359.2" y1="390.25" x2="356.76" y2="385.84"/>
			<line class="st19" x1="354.19" y1="389.53" x2="352.81" y2="387.6"/>
			<line class="st19" x1="348.33" y1="394.8" x2="346.39" y2="392.77"/>
			<line class="st19" x1="348.03" y1="399.91" x2="344" y2="395.9"/>
			<line class="st19" x1="347.17" y1="404.42" x2="343.1" y2="400.32"/>
			<line class="st19" x1="344.98" y1="407.8" x2="342.54" y2="405.17"/>
			<line class="st19" x1="341.89" y1="410.49" x2="341.2" y2="409.64"/>
			<line class="st19" x1="338.47" y1="413.01" x2="337.62" y2="411.72"/>
			<g>
				<path class="st20" d="M344.18,408.09l0.57,0.34c-0.23,0.23-0.47,0.46-0.72,0.68l-0.43-0.48
					C343.8,408.46,343.99,408.27,344.18,408.09z"/>
			</g>
			<g>
				<path class="st20" d="M344.74,408.43c3.68-3.8,3.57-7.26,3.71-10.61c0.06-1.72,0.14-3.43,0.72-5.11
					c0.58-1.67,1.65-3.36,3.75-4.87c2.11-1.5,4.19-2.02,6.05-1.95c1.87,0.07,3.53,0.69,5.05,1.51c1.09,0.58,2.11,1.27,3.09,1.9
					l-0.1-0.79l-0.06-0.52c-0.54-0.37-1.11-0.8-1.72-1.15c-1.53-0.95-3.31-1.72-5.46-1.83c-2.14-0.12-4.66,0.49-7.23,2.32
					c-2.54,1.84-3.79,3.83-4.45,5.72c-0.66,1.9-0.71,3.72-0.76,5.51c-0.11,3.27-0.06,6.38-3.16,9.54L344.74,408.43z"/>
			</g>
			<g>
				<path class="st21" d="M336.97,414.33c0.16-0.09,0.32-0.19,0.48-0.29c2.77-1.69,4.14-3.69,4.89-5.56
					c0.74-1.89,0.86-3.73,0.94-5.51c0.17-3.46,0.07-6.67,3.57-10.05c3.58-3.38,7.25-3.22,10.59-2.54c1.68,0.35,3.3,0.82,4.93,1.12
					c1.64,0.3,3.23,0.45,5.08,0.28l-0.09-0.64c-1.59,0.12-2.97-0.07-4.42-0.42c-1.44-0.34-2.91-0.83-4.52-1.24
					c-1.74-0.42-3.61-0.71-5.65-0.37c-2.02,0.34-4.23,1.31-6.36,3.35c-2.13,2.03-3.09,3.95-3.61,5.8c-0.51,1.85-0.55,3.64-0.65,5.42
					c-0.1,1.72-0.24,3.42-0.91,5.1c-0.66,1.66-1.86,3.33-4.12,4.72c-0.16,0.1-0.32,0.19-0.48,0.28
					C336.75,413.97,336.86,414.15,336.97,414.33z"/>
			</g>
			<g>
				<path class="st20" d="M335.72,412.27c2.49,0.14,5.42-0.61,8.3-3.16l-0.43-0.48c-2.92,2.59-5.92,2.95-8.57,2.51
					C335.26,411.52,335.49,411.9,335.72,412.27z"/>
			</g>
		</g>
	</g>
</g>
<g>
	<g>
		<g>
			<line class="st19" x1="402.36" y1="373.55" x2="401.09" y2="376.41"/>
			<line class="st19" x1="404.32" y1="375.63" x2="401.43" y2="380.56"/>
			<line class="st19" x1="404.92" y1="379.24" x2="401.92" y2="383.29"/>
			<line class="st19" x1="404.49" y1="383.16" x2="402.88" y2="384.9"/>
			<line class="st19" x1="407.33" y1="385.99" x2="405.04" y2="387.61"/>
			<line class="st19" x1="411.41" y1="386.03" x2="406.44" y2="388.79"/>
			<line class="st19" x1="414.83" y1="387.2" x2="409.5" y2="389.42"/>
			<line class="st19" x1="416.56" y1="389.25" x2="413.17" y2="390.4"/>
			<line class="st19" x1="417.26" y1="391.3" x2="416.23" y2="391.67"/>
			<line class="st19" x1="417.93" y1="392.95" x2="416.54" y2="393.61"/>
			<g>
				<path class="st20" d="M416.39,389.78l0.57-0.31c0.07,0.17,0.14,0.34,0.2,0.51l-0.61,0.2
					C416.51,390.06,416.45,389.92,416.39,389.78z"/>
			</g>
			<g>
				<path class="st20" d="M416.96,389.48c-0.6-1.39-1.74-2.49-3.03-3.07c-1.3-0.58-2.73-0.71-4.09-0.72
					c-1.41-0.01-2.73,0.11-3.88,0.06c-1.14-0.06-2.09-0.29-2.88-1.02c-1.57-1.41-1.24-3.82-1.51-6.65
					c-0.09-1.01-0.25-2.04-0.61-3.02l-0.3,0.74l-0.2,0.49c0.13,0.56,0.22,1.13,0.29,1.69c0.17,1.45,0.21,2.87,0.41,4.11
					c0.21,1.24,0.57,2.27,1.48,3.11c0.91,0.85,1.96,1.13,3.23,1.23c1.24,0.11,2.69,0.01,4.13,0.07c1.33,0.05,2.65,0.22,3.8,0.74
					c1.16,0.52,2.09,1.39,2.6,2.55L416.96,389.48z"/>
			</g>
			<g>
				<path class="st21" d="M418.52,393.39l-0.08-0.16c-0.48-0.89-1.42-1.69-2.63-2.31c-1.2-0.61-2.65-1.02-4.07-1.32
					c-1.37-0.3-2.71-0.47-3.81-0.75c-1.1-0.3-1.98-0.7-2.6-1.57c-0.63-0.87-0.73-1.84-0.65-2.98c0.09-1.14,0.37-2.44,0.54-3.85
					c0.16-1.38,0.22-2.85-0.22-4.22c-0.43-1.37-1.36-2.68-3.1-3.5l-0.24,0.6c2.78,1.41,3.02,4.23,2.78,6.86
					c-0.14,1.45-0.39,2.85-0.45,4.11c-0.05,1.27,0.1,2.35,0.82,3.35c0.72,1.01,1.68,1.49,2.89,1.84c1.2,0.34,2.63,0.61,4.04,0.93
					c2.75,0.61,5.3,1.49,6.13,3.1c0.03,0.06,0.06,0.12,0.08,0.17C418.15,393.6,418.34,393.5,418.52,393.39z"/>
			</g>
			<g>
				<path class="st20" d="M416.43,394.59c0.76-1.49,1.38-2.65,0.73-4.59l-0.61,0.2c0.67,1.99-0.29,3.25-1.28,5.06
					C415.66,395.03,416.05,394.81,416.43,394.59z"/>
			</g>
		</g>
	</g>
</g>
<g>
	<g>
		<g>
			<line class="st19" x1="363.75" y1="408.55" x2="363.85" y2="411.67"/>
			<line class="st19" x1="367.56" y1="409.42" x2="367.65" y2="415.13"/>
			<line class="st19" x1="371.34" y1="412.08" x2="371.33" y2="417.12"/>
			<line class="st19" x1="375.01" y1="415.41" x2="374.96" y2="417.79"/>
			<line class="st19" x1="382.38" y1="415.42" x2="382.22" y2="418.22"/>
			<line class="st19" x1="386.3" y1="412.23" x2="385.89" y2="417.9"/>
			<line class="st19" x1="390.26" y1="409.96" x2="389.74" y2="415.72"/>
			<line class="st19" x1="394.12" y1="409.43" x2="393.74" y2="412.99"/>
			<line class="st19" x1="397.9" y1="409.86" x2="397.77" y2="410.95"/>
			<line class="st19" x1="401.67" y1="410.36" x2="401.45" y2="411.89"/>
			<g>
				<path class="st20" d="M394.82,409.83l-0.11-0.65c0.3,0.02,0.61,0.04,0.92,0.08l-0.07,0.64
					C395.32,409.87,395.07,409.85,394.82,409.83z"/>
			</g>
			<g>
				<path class="st20" d="M394.72,409.18c-4.98-0.26-7.71,1.96-10.25,4.11c-2.63,2.22-5.01,4.33-9.45,4.23
					c-4.45-0.07-6.74-2.28-9.27-4.61c-0.91-0.84-1.84-1.67-2.91-2.4l0.03,0.8l0.02,0.53c0.54,0.44,1.06,0.91,1.58,1.38
					c2.63,2.39,5.23,4.86,10.54,4.95c5.31,0.12,8.01-2.23,10.73-4.52c2.49-2.08,4.93-4.03,9.09-3.81L394.72,409.18z"/>
			</g>
			<g>
				<path class="st21" d="M403.42,410.29c-0.16-0.03-0.32-0.05-0.48-0.08c-5.54-0.8-8.53,1.46-11.31,3.65
					c-2.7,2.14-5.15,4.16-9.59,3.92c-4.44-0.23-6.66-2.5-9.11-4.92c-2.42-2.37-5.04-4.83-10.2-4.85l0.03,0.64
					c4.23,0.06,6.54,2.2,8.88,4.47c2.55,2.48,5.06,5.03,10.37,5.3c5.3,0.3,8.08-1.96,10.88-4.16c2.7-2.1,5.35-4.08,9.96-3.41
					c0.16,0.03,0.33,0.05,0.48,0.08C403.36,410.71,403.39,410.5,403.42,410.29z"/>
			</g>
			<g>
				<path class="st20" d="M403.1,412.67c-1.69-1.64-3.92-3.01-7.46-3.41l-0.07,0.64c3.61,0.41,5.66,2.1,7.36,4.1
					C402.99,413.55,403.04,413.11,403.1,412.67z"/>
			</g>
		</g>
	</g>
</g>
<g>
	<g>
		<g>
			<line class="st19" x1="360.74" y1="363.36" x2="358.64" y2="361.05"/>
			<line class="st19" x1="358.84" y1="364.44" x2="354" y2="361.41"/>
			<line class="st19" x1="354.94" y1="365.7" x2="350.6" y2="363.14"/>
			<line class="st19" x1="350.5" y1="366.81" x2="348.43" y2="365.65"/>
			<line class="st19" x1="347.69" y1="372.54" x2="345.21" y2="371.22"/>
			<line class="st19" x1="349.24" y1="376.94" x2="344.22" y2="374.29"/>
			<line class="st19" x1="350.04" y1="380.94" x2="344.94" y2="378.24"/>
			<line class="st19" x1="349.37" y1="384.16" x2="346.2" y2="382.49"/>
			<line class="st19" x1="347.99" y1="386.81" x2="347" y2="386.33"/>
			<line class="st19" x1="347.6" y1="387.77" x2="346.06" y2="387.76"/>
			<g>
				<path class="st20" d="M348.79,384.55l0.63,0.17c-0.1,0.23-0.22,0.46-0.34,0.69l-0.57-0.3
					C348.62,384.93,348.71,384.74,348.79,384.55z"/>
			</g>
			<g>
				<path class="st20" d="M349.42,384.72c1.69-3.77,0.56-6.76-0.53-9.65c-1.12-2.97-2.19-5.79-0.25-9.26
					c1.96-3.46,4.99-4.1,8.13-4.54c0.56-0.06,1.13-0.08,1.64-0.01c0.51,0.07,0.94,0.24,1.34,0.45l-0.44-0.67l-0.29-0.44
					c-0.53-0.21-1.13-0.35-1.79-0.35c-0.83-0.01-1.71,0.16-2.54,0.37c-0.82,0.21-1.63,0.45-2.41,0.83c-1.57,0.75-3.03,1.97-4.2,4.05
					c-2.32,4.17-1.09,7.35,0.06,10.42c1.06,2.81,2.06,5.47,0.65,8.64L349.42,384.72z"/>
			</g>
			<g>
				<path class="st21" d="M347.76,387.06c0.05,0.07,0.06,0.16,0.09,0.23c0.1,0.35,0.02,0.59-0.05,0.56c-0.07-0.01-0.15-0.2-0.2-0.45
					c-0.1-0.53-0.16-1.28-0.23-2.14c-0.17-1.69-0.76-3.25-1.34-4.78c-1.12-2.98-2.19-5.77-0.37-9.21c1.84-3.45,4.81-4.17,7.92-4.8
					c1.54-0.31,3.11-0.61,4.57-1.22c0.72-0.29,1.46-0.73,2.1-1.17c0.3-0.19,0.55-0.34,0.7-0.37c0.16-0.05,0.11,0.09,0.15,0.09
					l-0.35-0.54c-0.03,0-0.07,0.01-0.1,0c-0.02-0.02-0.06-0.02-0.13-0.02c-0.13,0.02-0.33,0.1-0.58,0.22
					c-0.49,0.23-1.16,0.64-1.81,0.88c-1.31,0.51-2.75,0.77-4.24,1.06c-3.21,0.62-6.59,1.43-8.8,5.58
					c-2.18,4.12-0.97,7.28,0.18,10.35c0.57,1.47,1.08,2.97,1.31,4.39c0.13,0.68,0.25,1.3,0.38,1.72c0.07,0.2,0.15,0.34,0.21,0.35
					c0.07,0.02,0.11-0.11,0.05-0.31c-0.02-0.05-0.03-0.11-0.07-0.16C347.37,387.23,347.57,387.14,347.76,387.06z"/>
			</g>
			<g>
				<path class="st20" d="M345.56,388.03c0.62-0.4,1.23-0.16,1.72-0.42c0.51-0.27,1.03-0.77,1.81-2.2l-0.57-0.3
					c-0.78,1.45-1.4,1.93-2.07,2.28c-0.64,0.34-1.47,0.38-2.1,1.2C344.75,388.4,345.16,388.22,345.56,388.03z"/>
			</g>
		</g>
	</g>
</g>
<g>
	<g>
		<g>
			<line class="st19" x1="362.78" y1="392.54" x2="362.88" y2="395.67"/>
			<line class="st19" x1="365.8" y1="393.42" x2="365.92" y2="399.13"/>
			<line class="st19" x1="368.82" y1="396.07" x2="368.81" y2="401.11"/>
			<line class="st19" x1="371.67" y1="399.42" x2="371.57" y2="401.79"/>
			<line class="st19" x1="377.29" y1="399.68" x2="376.86" y2="402.45"/>
			<line class="st19" x1="380.81" y1="396.87" x2="379.49" y2="402.4"/>
			<line class="st19" x1="384.37" y1="395.15" x2="382.85" y2="400.73"/>
			<line class="st19" x1="386.9" y1="394.78" x2="386.39" y2="398.33"/>
			<line class="st19" x1="388.45" y1="394.82" x2="388.61" y2="395.9"/>
			<line class="st19" x1="389.26" y1="394.55" x2="390.11" y2="395.84"/>
			<g>
				<path class="st20" d="M387.23,395.16l-0.02-0.64c0.13,0,0.26,0,0.4,0.01l-0.03,0.64C387.48,395.16,387.35,395.15,387.23,395.16z
					"/>
			</g>
			<g>
				<path class="st20" d="M387.21,394.52c-1.16,0.01-2.68,0.24-4.12,0.8c-1.46,0.55-2.78,1.44-3.92,2.4
					c-2.41,1.97-4.24,3.96-7.56,3.81c-3.35-0.11-5.2-2.28-7.23-4.62c-0.73-0.83-1.47-1.68-2.31-2.41l0.03,0.8l0.02,0.53
					c0.42,0.45,0.84,0.91,1.25,1.39c2.09,2.41,4.24,4.83,8.21,4.95c1.98,0.08,3.45-0.41,4.77-1.18c1.32-0.77,2.5-1.82,3.75-2.8
					c1.14-0.9,2.38-1.7,3.62-2.22c1.24-0.53,2.46-0.81,3.5-0.82L387.21,394.52z"/>
			</g>
			<g>
				<path class="st21" d="M389.09,394.28c0-0.01,0.01-0.02,0.01-0.02c0.04-0.03,0,0.21-0.22,0.56c-0.21,0.35-0.55,0.8-0.95,1.28
					c-0.78,0.96-1.98,2.03-3.23,3c-1.22,0.94-2.53,1.76-3.82,2.3c-1.28,0.55-2.51,0.83-4.1,0.59c-3.15-0.45-4.77-2.71-6.7-5.14
					c-1.89-2.39-4.09-4.81-8.1-4.86l0.03,0.65c3.29,0.09,5.2,2.2,7.05,4.47c2.01,2.49,3.91,5,7.63,5.51
					c1.88,0.3,3.24-0.01,4.77-0.56c1.51-0.55,2.97-1.46,4.18-2.49c1.19-0.99,2.14-2.09,2.79-3.02c0.69-0.92,1.03-1.72,1.11-1.83
					c0.01-0.01,0.01-0.02,0.03-0.02C389.4,394.57,389.24,394.42,389.09,394.28z"/>
			</g>
			<g>
				<path class="st20" d="M390.89,395.88c-0.75-0.21-1.26-0.61-1.71-0.89c-0.46-0.29-0.91-0.44-1.57-0.47l-0.03,0.64
					c0.76,0.03,1.3,0.26,1.92,0.62c0.62,0.35,1.36,0.81,2.4,0.97C391.56,396.46,391.22,396.17,390.89,395.88z"/>
			</g>
		</g>
	</g>
</g>
<g>
	<ellipse class="st23" cx="296.12" cy="335.83" rx="44.87" ry="44.87"/>
</g>
<g>
	<circle class="st24" cx="452.19" cy="334.19" r="44.87"/>
</g>
<g>
	<circle class="st24" cx="377.55" cy="395.94" r="44.87"/>
</g>
<text transform="matrix(1 0 0 1 282.1154 373.3911)" class="st25 st11 st12">cell 1</text>
<text transform="matrix(1 0 0 1 438.184 372.9327)" class="st26 st11 st12">cell 3</text>
<text transform="matrix(1 0 0 1 302.8563 469.2228)" class="st11 st12">Partially recovered fragments</text>
<text transform="matrix(1 0 0 1 363.5401 433.7154)" class="st27 st11 st12">cell 2</text>
<g>
	<circle class="st28" cx="62.56" cy="377.36" r="6.65"/>
	<circle class="st28" cx="71.31" cy="390.52" r="6.65"/>
	<circle class="st28" cx="100.44" cy="400.71" r="6.65"/>
	<circle class="st28" cx="112.12" cy="384.5" r="6.65"/>
	<circle class="st28" cx="121.77" cy="361.18" r="6.65"/>
	<circle class="st28" cx="38.66" cy="328.87" r="6.65"/>
	<circle class="st29" cx="100.44" cy="335.43" r="6.65"/>
	<circle class="st30" cx="90.74" cy="377.36" r="6.65"/>
	<circle class="st30" cx="79.29" cy="415.55" r="6.65"/>
	<circle class="st30" cx="47.41" cy="407.36" r="6.65"/>
	<circle class="st30" cx="51.36" cy="356.44" r="6.65"/>
	<circle class="st30" cx="92.59" cy="356.44" r="6.65"/>
	<circle class="st28" cx="69.21" cy="348.21" r="6.65"/>
	<text transform="matrix(1 0 0 1 28.1349 436.316)" class="st11 st12">Dissociated cells </text>
	<text transform="matrix(1 0 0 1 26.1249 450.716)" class="st11 st12">after tagmentation</text>
	<circle class="st28" cx="32.01" cy="358.48" r="6.65"/>
	<circle class="st30" cx="38.66" cy="384.01" r="6.65"/>
</g>
<line class="st31" x1="9.68" y1="269.46" x2="735.81" y2="269.46"/>
<g>
	<rect x="16.96" y="19.34" class="st32" width="209.2" height="23.45"/>
	<text transform="matrix(1 0 0 1 17.9649 34.0934)" class="st7 st33">Latent accessibility of cells</text>
</g>
<g>
	<rect x="16.96" y="276.17" class="st32" width="217.16" height="23.45"/>
	<text transform="matrix(1 0 0 1 17.9648 290.9312)" class="st7 st33">Sequencing reads capturing</text>
</g>
<g>
	<rect x="511.43" y="113.09" class="st34" width="161.38" height="51.25"/>
	<rect x="511.43" y="61.08" class="st35" width="161.38" height="52.04"/>
	<rect x="512.43" y="164.33" class="st36" width="161.38" height="36.6"/>
	<line class="st9" x1="511.43" y1="61.3" x2="511.43" y2="200.65"/>
	<line class="st9" x1="672.81" y1="61.08" x2="672.81" y2="200.65"/>
	<line class="st9" x1="511.43" y1="200.65" x2="672.81" y2="200.65"/>
	<text transform="matrix(1 0 0 1 464.7991 43.5933)" class="st11 st12">Tn5 insertion rate</text>
	<text transform="matrix(1 0 0 1 475.1391 57.9933)" class="st11 st12">(countinuous)</text>
	<text transform="matrix(1 0 0 1 614.1118 43.5935)" class="st11 st12">Paired insertion count </text>
	<text transform="matrix(1 0 0 1 651.4718 57.9935)" class="st11 st12">(integer)</text>
	<text transform="matrix(1 0 0 1 493.8336 115.026)" class="st11 st12"></text>
	<text transform="matrix(1 0 0 1 500.5078 119.0219)" class="st11 st37">2</text>
	<text transform="matrix(1 0 0 1 493.8337 167.0151)" class="st11 st12"></text>
	<text transform="matrix(1 0 0 1 500.5078 171.0112)" class="st11 st37">1</text>
	<g>
		<g>
			<line class="st38" x1="511.43" y1="164.33" x2="517.43" y2="164.33"/>
			<line class="st39" x1="528.92" y1="164.33" x2="661.07" y2="164.33"/>
			<line class="st38" x1="666.81" y1="164.33" x2="672.81" y2="164.33"/>
		</g>
	</g>
	<g>
		<g>
			<line class="st38" x1="511.43" y1="113.12" x2="517.43" y2="113.12"/>
			<line class="st39" x1="528.92" y1="113.12" x2="661.07" y2="113.12"/>
			<line class="st38" x1="666.81" y1="113.12" x2="672.81" y2="113.12"/>
		</g>
	</g>
	<text transform="matrix(1 0 0 1 678.9286 183.7713)" class="st11 st12">0</text>
	<text transform="matrix(1 0 0 1 678.9286 144.4404)" class="st11 st12">1</text>
	<text transform="matrix(1 0 0 1 678.9286 95.1634)" class="st11 st12">2</text>
	<g>
		<path class="st40" d="M533.01,110.08c0,19.23,18.97,22.69,18.97,41.43s-18.97,18.74-18.97,37.48"/>
		<line class="st40" x1="531.01" y1="108.34" x2="531.01" y2="190.99"/>
	</g>
	<g>
		<path class="st40" d="M586.22,83.96c0,19.23,18.97,22.69,18.97,41.43s-18.97,18.74-18.97,37.48"/>
		<line class="st40" x1="584.22" y1="82.21" x2="584.22" y2="164.87"/>
	</g>
	<g>
		<path class="st40" d="M635.22,66.63c0,19.23,18.97,22.69,18.97,41.43s-18.97,18.74-18.97,37.48"/>
		<line class="st40" x1="633.22" y1="64.88" x2="633.22" y2="147.54"/>
	</g>
	<text transform="matrix(1 0 0 1 515.658 213.4304)" class="st11 st12">group 1</text>
	<text transform="matrix(1 0 0 1 570.007 213.4302)" class="st11 st12">group 2</text>
	<text transform="matrix(1 0 0 1 624.3541 213.4305)" class="st11 st12">group 3</text>
</g>
<g>
	<g>
		<g>
			<line class="st5" x1="411.69" y1="148.73" x2="461.14" y2="148.73"/>
			<g>
				<polygon class="st6" points="458.48,130.7 469.86,148.73 458.48,166.75 458.36,166.75 458.36,130.7 				"/>
			</g>
		</g>
	</g>
</g>
<g>
	<rect x="331.63" y="30.08" class="st41" width="103.67" height="38.48"/>
	<text transform="matrix(1 0 0 1 364.6615 44.6975)" class="st11 st12">Nucleosome</text>
	<text transform="matrix(1 0 0 1 364.6613 59.0454)" class="st11 st12">Tn5 dimer</text>
	<circle class="st42" cx="351.17" cy="40.74" r="6.65"/>
	<g>
		<polygon class="st43" points="348.18,50.68 351.17,56.33 348.18,61.99 342.2,61.99 339.21,56.33 342.2,50.68 		"/>
		<polygon class="st43" points="360.14,50.68 363.13,56.33 360.14,61.99 354.16,61.99 351.17,56.33 354.16,50.68 		"/>
	</g>
</g>
<text transform="matrix(1 0 0 1 82.4985 242.2891)" class="st11 st12">Biological/experimental factors </text>
<text transform="matrix(1 0 0 1 85.8385 256.6891)" class="st11 st12">determine chromatin structure</text>
<text transform="matrix(1 0 0 1 307.2426 242.2893)" class="st11 st12">Chromatin structure determines </text>
<text transform="matrix(1 0 0 1 355.2526 256.6893)" class="st11 st12">insertion rates</text>
<g>
	<g>
		<g>
			<g>
				<g>
					<g>
						<line class="st44" x1="269.23" y1="128.05" x2="269.1" y2="133.58"/>
						<line class="st44" x1="274.83" y1="129.87" x2="274.63" y2="139.97"/>
						<line class="st44" x1="280.39" y1="134.72" x2="280.23" y2="143.63"/>
						<line class="st44" x1="285.96" y1="140.63" x2="285.9" y2="144.83"/>
						<line class="st44" x1="297.31" y1="140.29" x2="297.27" y2="145.25"/>
						<line class="st44" x1="303.01" y1="134.26" x2="302.96" y2="144.3"/>
						<line class="st44" x1="308.67" y1="129.73" x2="308.65" y2="139.93"/>
						<line class="st44" x1="314.31" y1="128.12" x2="314.31" y2="134.45"/>
						<line class="st44" x1="319.94" y1="128.1" x2="319.95" y2="130.04"/>
						<line class="st44" x1="325.58" y1="128.07" x2="325.6" y2="130.79"/>
						<g>
							<path class="st20" d="M315.41,128.7l-0.26-1.13c0.45-0.03,0.91-0.05,1.37-0.05v1.13
								C316.14,128.66,315.77,128.67,315.41,128.7z"/>
						</g>
						<g>
							<path class="st20" d="M315.14,127.57c-7.35,0.48-11.13,4.69-14.81,8.75c-3.79,4.18-7.4,8.13-14.36,8.03
								c-6.95-0.1-10.45-4.15-14.12-8.44c-1.32-1.54-2.65-3.1-4.17-4.49l-0.03,1.42l-0.02,0.93c0.77,0.83,1.51,1.7,2.26,2.58
								c3.78,4.43,7.73,9.01,16.08,9.13c8.34,0.12,12.42-4.35,16.33-8.68c3.59-3.96,6.95-7.72,13.12-8.12L315.14,127.57z"/>
						</g>
						<g>
							<path class="st21" d="M328.12,127.48c-0.24,0-0.48-0.01-0.72-0.01c-8.25,0.06-12.24,4.55-16.13,8.89
								c-3.77,4.2-7.35,8.17-14.31,8.12c-6.96-0.06-10.48-4.09-14.17-8.35c-3.67-4.24-7.42-8.6-15.03-9.11l-0.02,1.14
								c6.25,0.5,9.56,4.35,13.08,8.42c3.81,4.41,7.79,8.96,16.13,9.04c8.34,0.06,12.39-4.43,16.28-8.77
								c3.77-4.22,7.29-8.19,14.18-8.24c0.25,0,0.49,0.01,0.73,0.01C328.13,128.23,328.13,127.85,328.12,127.48z"/>
						</g>
						<g>
							<path class="st20" d="M328.21,131.73c-2.9-2.43-6.44-4.21-11.69-4.21v1.13c5.38,0,8.73,2.38,11.75,5.43
								C328.25,133.3,328.23,132.51,328.21,131.73z"/>
						</g>
					</g>
					<g>
						<line class="st44" x1="329.71" y1="128.48" x2="329.76" y2="134.01"/>
						<line class="st44" x1="335.37" y1="130.12" x2="335.49" y2="140.22"/>
						<line class="st44" x1="341.08" y1="134.79" x2="341.21" y2="143.69"/>
						<line class="st44" x1="346.84" y1="140.52" x2="346.91" y2="144.71"/>
						<line class="st44" x1="358.17" y1="139.81" x2="358.29" y2="144.77"/>
						<line class="st44" x1="363.68" y1="133.6" x2="363.95" y2="143.64"/>
						<line class="st44" x1="369.19" y1="128.89" x2="369.49" y2="139.09"/>
						<line class="st44" x1="374.77" y1="127.1" x2="374.98" y2="133.43"/>
						<line class="st44" x1="380.4" y1="126.9" x2="380.47" y2="128.84"/>
						<line class="st44" x1="386.03" y1="126.69" x2="386.14" y2="129.41"/>
						<g>
							<path class="st20" d="M375.89,127.64l-0.3-1.12c0.44-0.04,0.91-0.07,1.37-0.09l0.04,1.13
								C376.62,127.58,376.25,127.61,375.89,127.64z"/>
						</g>
						<g>
							<path class="st20" d="M375.59,126.53c-7.33,0.72-10.97,5.04-14.52,9.22c-3.65,4.3-7.14,8.37-14.09,8.49
								c-6.95,0.12-10.58-3.81-14.39-7.98c-1.37-1.5-2.75-3.01-4.32-4.35l0.02,1.42l0.01,0.93c0.79,0.8,1.56,1.65,2.34,2.5
								c3.92,4.3,8.02,8.76,16.36,8.61c8.34-0.15,12.27-4.75,16.04-9.19c3.46-4.07,6.7-7.93,12.85-8.54L375.59,126.53z"/>
						</g>
						<g>
							<path class="st21" d="M388.56,126.02c-0.24,0.01-0.48,0.01-0.72,0.02c-8.25,0.32-12.09,4.94-15.84,9.4
								c-3.63,4.32-7.09,8.4-14.04,8.57c-6.95,0.16-10.6-3.76-14.43-7.89c-3.8-4.12-7.69-8.36-15.31-8.63l0.02,1.14
								c6.27,0.3,9.69,4.04,13.34,7.99c3.95,4.28,8.07,8.71,16.41,8.52c8.34-0.2,12.25-4.83,15.99-9.29
								c3.63-4.33,7.02-8.42,13.91-8.69c0.25,0,0.49-0.01,0.73-0.01C388.59,126.77,388.58,126.39,388.56,126.02z"/>
						</g>
						<g>
							<path class="st20" d="M388.78,130.27c-2.97-2.34-6.57-4-11.82-3.83l0.04,1.13c5.38-0.18,8.8,2.1,11.92,5.05
								C388.87,131.83,388.82,131.04,388.78,130.27z"/>
						</g>
					</g>
				</g>
			</g>
		</g>
		<ellipse class="st25" cx="297.27" cy="137.56" rx="10.59" ry="10.33"/>
		<ellipse class="st25" cx="344.53" cy="139.88" rx="10.59" ry="10.33"/>
		<g>
			<polygon class="st43" points="319.78,131.91 322.77,137.56 319.78,143.21 313.8,143.21 310.81,137.56 313.8,131.91 			"/>
			<polygon class="st43" points="331.74,131.91 334.73,137.56 331.74,143.21 325.76,143.21 322.77,137.56 325.76,131.91 			"/>
		</g>
		<g>
			<polygon class="st43" points="369.93,132.78 372.92,138.43 369.93,144.09 363.95,144.09 360.96,138.43 363.95,132.78 			"/>
			<polygon class="st43" points="381.89,132.78 384.88,138.43 381.89,144.09 375.91,144.09 372.92,138.43 375.91,132.78 			"/>
		</g>
	</g>
	<text transform="matrix(1 0 0 1 208.8082 140.9857)" class="st11 st12">group 2</text>
</g>
<g>
	<text transform="matrix(1 0 0 1 208.808 97.6263)" class="st11 st12">group 1</text>
	<g>
		<g>
			<g>
				<g>
					<g>
						<line class="st44" x1="266.19" y1="86.37" x2="266.06" y2="91.89"/>
						<line class="st44" x1="271.79" y1="88.19" x2="271.59" y2="98.28"/>
						<line class="st44" x1="277.35" y1="93.03" x2="277.2" y2="101.94"/>
						<line class="st44" x1="282.92" y1="98.94" x2="282.86" y2="103.14"/>
						<line class="st44" x1="294.27" y1="98.6" x2="294.23" y2="103.56"/>
						<line class="st44" x1="299.97" y1="92.57" x2="299.92" y2="102.61"/>
						<line class="st44" x1="305.63" y1="88.04" x2="305.61" y2="98.25"/>
						<line class="st44" x1="311.27" y1="86.43" x2="311.27" y2="92.76"/>
						<line class="st44" x1="316.9" y1="86.41" x2="316.91" y2="88.35"/>
						<line class="st44" x1="322.54" y1="86.38" x2="322.56" y2="89.11"/>
						<g>
							<path class="st20" d="M312.37,87.01l-0.26-1.13c0.45-0.03,0.91-0.05,1.37-0.05v1.13C313.1,86.97,312.73,86.99,312.37,87.01z"
								/>
						</g>
						<g>
							<path class="st20" d="M312.1,85.88c-7.35,0.48-11.13,4.69-14.81,8.75c-3.79,4.18-7.4,8.13-14.36,8.03
								c-6.95-0.1-10.45-4.15-14.12-8.44c-1.32-1.54-2.65-3.1-4.17-4.49l-0.03,1.42l-0.02,0.93c0.77,0.83,1.51,1.7,2.26,2.58
								c3.78,4.43,7.73,9.01,16.08,9.13c8.34,0.12,12.42-4.35,16.33-8.68c3.59-3.96,6.95-7.72,13.12-8.12L312.1,85.88z"/>
						</g>
						<g>
							<path class="st21" d="M325.08,85.79c-0.24,0-0.48-0.01-0.72-0.01c-8.25,0.06-12.24,4.55-16.13,8.89
								c-3.77,4.2-7.35,8.17-14.31,8.12c-6.96-0.06-10.48-4.09-14.17-8.35c-3.67-4.24-7.42-8.6-15.03-9.11l-0.02,1.14
								c6.25,0.5,9.56,4.35,13.08,8.42c3.81,4.41,7.79,8.96,16.13,9.04c8.34,0.06,12.39-4.43,16.28-8.77
								c3.77-4.22,7.29-8.19,14.18-8.24c0.25,0,0.49,0.01,0.73,0.01C325.09,86.55,325.09,86.17,325.08,85.79z"/>
						</g>
						<g>
							<path class="st20" d="M325.17,90.05c-2.9-2.43-6.44-4.21-11.69-4.21v1.13c5.38,0,8.73,2.38,11.75,5.43
								C325.21,91.61,325.19,90.82,325.17,90.05z"/>
						</g>
					</g>
					<g>
						<line class="st44" x1="326.67" y1="86.79" x2="326.72" y2="92.32"/>
						<line class="st44" x1="332.33" y1="88.43" x2="332.45" y2="98.53"/>
						<line class="st44" x1="338.04" y1="93.1" x2="338.17" y2="102.01"/>
						<line class="st44" x1="343.8" y1="98.83" x2="343.88" y2="103.02"/>
						<line class="st44" x1="355.13" y1="98.12" x2="355.25" y2="103.08"/>
						<line class="st44" x1="360.64" y1="91.91" x2="360.91" y2="101.95"/>
						<line class="st44" x1="366.15" y1="87.2" x2="366.46" y2="97.4"/>
						<line class="st44" x1="371.73" y1="85.41" x2="371.94" y2="91.74"/>
						<line class="st44" x1="377.37" y1="85.22" x2="377.43" y2="87.15"/>
						<line class="st44" x1="383" y1="85" x2="383.1" y2="87.72"/>
						<g>
							<path class="st20" d="M372.85,85.96l-0.3-1.12c0.44-0.04,0.91-0.07,1.37-0.09l0.04,1.13
								C373.58,85.89,373.21,85.92,372.85,85.96z"/>
						</g>
						<g>
							<path class="st20" d="M372.55,84.84c-7.33,0.72-10.97,5.04-14.52,9.22c-3.65,4.3-7.14,8.37-14.09,8.49
								c-6.95,0.12-10.58-3.81-14.39-7.98c-1.37-1.5-2.75-3.01-4.32-4.35l0.02,1.42l0.01,0.93c0.79,0.8,1.56,1.65,2.34,2.5
								c3.92,4.3,8.02,8.76,16.36,8.61s12.27-4.75,16.04-9.19c3.46-4.07,6.7-7.93,12.85-8.54L372.55,84.84z"/>
						</g>
						<g>
							<path class="st21" d="M385.52,84.33c-0.24,0.01-0.48,0.01-0.72,0.02c-8.25,0.32-12.09,4.94-15.84,9.4
								c-3.63,4.32-7.09,8.4-14.04,8.57c-6.95,0.16-10.6-3.76-14.43-7.89c-3.8-4.12-7.69-8.36-15.31-8.63l0.02,1.14
								c6.27,0.3,9.69,4.04,13.34,7.99c3.95,4.28,8.07,8.71,16.41,8.52c8.34-0.2,12.25-4.83,15.99-9.29
								c3.63-4.34,7.02-8.42,13.91-8.69c0.25,0,0.49-0.01,0.73-0.01C385.55,85.08,385.54,84.71,385.52,84.33z"/>
						</g>
						<g>
							<path class="st20" d="M385.74,88.58c-2.97-2.34-6.57-4-11.82-3.83l0.04,1.13c5.38-0.18,8.8,2.1,11.92,5.05
								C385.83,90.14,385.79,89.36,385.74,88.58z"/>
						</g>
					</g>
				</g>
			</g>
		</g>
		<ellipse class="st25" cx="297.63" cy="96.57" rx="10.59" ry="10.33"/>
		<ellipse class="st25" cx="334.37" cy="94.92" rx="10.59" ry="10.33"/>
		<ellipse class="st25" cx="375.39" cy="94.15" rx="10.59" ry="10.33"/>
		<ellipse class="st25" cx="270.16" cy="94.92" rx="10.59" ry="10.33"/>
	</g>
</g>
<g>
	<g>
		<g>
			<g>
				<g>
					<g>
						<line class="st44" x1="268.75" y1="173.68" x2="268.62" y2="179.21"/>
						<line class="st44" x1="274.35" y1="175.5" x2="274.15" y2="185.6"/>
						<line class="st44" x1="279.91" y1="180.35" x2="279.76" y2="189.26"/>
						<line class="st44" x1="285.48" y1="186.26" x2="285.42" y2="190.46"/>
						<line class="st44" x1="296.83" y1="185.92" x2="296.79" y2="190.88"/>
						<line class="st44" x1="302.53" y1="179.89" x2="302.48" y2="189.93"/>
						<line class="st44" x1="308.19" y1="175.36" x2="308.17" y2="185.56"/>
						<line class="st44" x1="313.83" y1="173.75" x2="313.83" y2="180.08"/>
						<line class="st44" x1="319.46" y1="173.73" x2="319.47" y2="175.67"/>
						<line class="st44" x1="325.1" y1="173.7" x2="325.12" y2="176.43"/>
						<g>
							<path class="st20" d="M314.93,174.33l-0.26-1.13c0.45-0.03,0.91-0.05,1.37-0.05v1.13
								C315.66,174.29,315.29,174.3,314.93,174.33z"/>
						</g>
						<g>
							<path class="st20" d="M314.66,173.2c-7.35,0.48-11.13,4.69-14.81,8.75c-3.79,4.18-7.4,8.13-14.36,8.03
								c-6.95-0.1-10.45-4.15-14.12-8.44c-1.32-1.54-2.65-3.1-4.17-4.49l-0.03,1.42l-0.02,0.93c0.77,0.83,1.51,1.7,2.26,2.58
								c3.78,4.43,7.73,9.01,16.08,9.13c8.34,0.12,12.42-4.35,16.33-8.68c3.59-3.96,6.95-7.72,13.12-8.12L314.66,173.2z"/>
						</g>
						<g>
							<path class="st21" d="M327.64,173.11c-0.24,0-0.48-0.01-0.72-0.01c-8.25,0.06-12.24,4.55-16.13,8.89
								c-3.77,4.2-7.35,8.17-14.31,8.12c-6.96-0.06-10.48-4.09-14.17-8.35c-3.67-4.24-7.42-8.6-15.03-9.11l-0.02,1.14
								c6.25,0.5,9.56,4.35,13.08,8.42c3.81,4.41,7.79,8.96,16.13,9.04c8.34,0.06,12.39-4.43,16.28-8.77
								c3.77-4.22,7.29-8.19,14.18-8.24c0.25,0,0.49,0.01,0.73,0.01C327.65,173.86,327.65,173.49,327.64,173.11z"/>
						</g>
						<g>
							<path class="st20" d="M327.73,177.36c-2.9-2.43-6.44-4.21-11.69-4.21v1.13c5.38,0,8.73,2.38,11.75,5.43
								C327.77,178.93,327.75,178.14,327.73,177.36z"/>
						</g>
					</g>
					<g>
						<line class="st44" x1="329.23" y1="174.11" x2="329.28" y2="179.64"/>
						<line class="st44" x1="334.89" y1="175.75" x2="335.01" y2="185.85"/>
						<line class="st44" x1="340.6" y1="180.42" x2="340.73" y2="189.32"/>
						<line class="st44" x1="346.36" y1="186.15" x2="346.43" y2="190.34"/>
						<line class="st44" x1="357.69" y1="185.44" x2="357.81" y2="190.4"/>
						<line class="st44" x1="363.2" y1="179.23" x2="363.47" y2="189.27"/>
						<line class="st44" x1="368.71" y1="174.52" x2="369.02" y2="184.72"/>
						<line class="st44" x1="374.29" y1="172.73" x2="374.5" y2="179.06"/>
						<line class="st44" x1="379.92" y1="172.53" x2="379.99" y2="174.47"/>
						<line class="st44" x1="385.56" y1="172.32" x2="385.66" y2="175.04"/>
						<g>
							<path class="st20" d="M375.41,173.27l-0.3-1.12c0.44-0.04,0.91-0.07,1.37-0.09l0.04,1.13
								C376.14,173.21,375.77,173.24,375.41,173.27z"/>
						</g>
						<g>
							<path class="st20" d="M375.11,172.16c-7.33,0.72-10.97,5.04-14.52,9.22c-3.65,4.3-7.14,8.37-14.09,8.49
								c-6.95,0.12-10.58-3.81-14.39-7.98c-1.37-1.5-2.75-3.01-4.32-4.35l0.02,1.42l0.01,0.93c0.79,0.8,1.56,1.65,2.34,2.5
								c3.92,4.3,8.02,8.76,16.36,8.61s12.27-4.75,16.04-9.19c3.46-4.07,6.7-7.93,12.85-8.54L375.11,172.16z"/>
						</g>
						<g>
							<path class="st21" d="M388.08,171.65c-0.24,0.01-0.48,0.01-0.72,0.02c-8.25,0.32-12.09,4.94-15.84,9.4
								c-3.63,4.32-7.09,8.4-14.04,8.57c-6.95,0.16-10.6-3.76-14.43-7.89c-3.8-4.12-7.69-8.36-15.31-8.63l0.02,1.14
								c6.27,0.3,9.69,4.04,13.34,7.99c3.95,4.28,8.07,8.71,16.41,8.52c8.34-0.2,12.25-4.83,15.99-9.29
								c3.63-4.34,7.02-8.42,13.91-8.69c0.25,0,0.49-0.01,0.73-0.01C388.11,172.4,388.1,172.02,388.08,171.65z"/>
						</g>
						<g>
							<path class="st20" d="M388.3,175.9c-2.97-2.34-6.57-4-11.82-3.83l0.04,1.13c5.38-0.18,8.8,2.1,11.92,5.05
								C388.39,177.46,388.34,176.67,388.3,175.9z"/>
						</g>
					</g>
				</g>
			</g>
		</g>
		<g>
			<polygon class="st43" points="376.42,170.27 379.41,175.92 376.42,181.58 370.44,181.58 367.45,175.92 370.44,170.27 			"/>
			<polygon class="st43" points="388.38,170.27 391.37,175.92 388.38,181.58 382.4,181.58 379.41,175.92 382.4,170.27 			"/>
		</g>
		<g>
			<polygon class="st43" points="275.1,178.35 278.09,184 275.1,189.66 269.12,189.66 266.13,184 269.12,178.35 			"/>
			<polygon class="st43" points="287.06,178.35 290.05,184 287.06,189.66 281.08,189.66 278.09,184 281.08,178.35 			"/>
		</g>
		<g>
			<polygon class="st43" points="333.1,182.58 336.09,188.24 333.1,193.89 327.12,193.89 324.13,188.24 327.12,182.58 			"/>
			<polygon class="st43" points="345.06,182.58 348.05,188.24 345.06,193.89 339.08,193.89 336.09,188.24 339.08,182.58 			"/>
		</g>
	</g>
	<text transform="matrix(1 0 0 1 208.808 184.3452)" class="st11 st12">group 3</text>
</g>
<text transform="matrix(1 0 0 1 508.3858 242.2891)" class="st11 st12">scATAC-seq provides crude measure</text>
<text transform="matrix(1 0 0 1 550.3958 256.6891)" class="st11 st12">of latent insertion rate</text>
<text transform="matrix(1 0 0 1 56.7209 102.604)" class="st11 st12">Cell types</text>
<text transform="matrix(1 0 0 1 22.4927 130.1603)" class="st11 st12">Developmental stages</text>
<text transform="matrix(1 0 0 1 38.1668 157.7173)" class="st11 st12">Spatial locations</text>
<text transform="matrix(1 0 0 1 40.039 185.2742)" class="st11 st12">Sample batches</text>
<g>
	<g>
		<line class="st9" x1="116.7" y1="99.47" x2="197.65" y2="127.94"/>
		<g>
			<path d="M202.2,129.54c-2.42,0.04-5.56,0.46-7.71,1.32l2.56-3.13l-0.04-4.05C198.16,125.7,200.34,128,202.2,129.54z"/>
		</g>
	</g>
</g>
<g>
	<g>
		<line class="st9" x1="115.54" y1="100.74" x2="195.46" y2="160.19"/>
		<g>
			<path d="M199.34,163.07c-2.33-0.68-5.45-1.21-7.76-1.03l3.37-2.23l1.17-3.87C196.61,158.2,198.02,161.04,199.34,163.07z"/>
		</g>
	</g>
</g>
<g>
	<g>
		<line class="st9" x1="130.34" y1="159.09" x2="197.31" y2="103.88"/>
		<g>
			<path d="M201.04,100.8c-1.22,2.1-2.48,5-2.86,7.29l-1.36-3.81l-3.48-2.06C195.66,102.28,198.75,101.6,201.04,100.8z"/>
		</g>
	</g>
</g>
<g>
	<g>
		<line class="st9" x1="132.95" y1="160.78" x2="193.56" y2="140"/>
		<g>
			<path d="M198.13,138.43c-1.88,1.53-4.08,3.81-5.23,5.82l0.07-4.05l-2.54-3.15C192.57,137.93,195.7,138.37,198.13,138.43z"/>
		</g>
	</g>
</g>
<g>
	<g>
		<line class="st9" x1="135.44" y1="163.67" x2="192.27" y2="174.16"/>
		<g>
			<path d="M197.01,175.04c-2.39,0.42-5.42,1.32-7.42,2.5l2.04-3.49l-0.66-3.99C192.42,171.87,194.93,173.8,197.01,175.04z"/>
		</g>
	</g>
</g>
<g>
	<g>
		<line class="st9" x1="143.76" y1="127.63" x2="193.81" y2="99.96"/>
		<g>
			<path d="M198.04,97.63c-1.58,1.84-3.35,4.46-4.14,6.64l-0.64-4l-3.04-2.66C192.48,98.09,195.64,97.99,198.04,97.63z"/>
		</g>
	</g>
</g>
<g>
	<g>
		<line class="st9" x1="144.66" y1="131.77" x2="196.38" y2="132.69"/>
		<g>
			<path d="M201.21,132.78c-2.29,0.8-5.13,2.19-6.9,3.68l1.44-3.78l-1.31-3.83C196.16,130.41,198.95,131.89,201.21,132.78z"/>
		</g>
	</g>
</g>
<g>
	<g>
		<line class="st9" x1="141.51" y1="134.47" x2="192.73" y2="166.18"/>
		<g>
			<path d="M196.84,168.72c-2.38-0.48-5.53-0.74-7.82-0.36l3.17-2.51l0.83-3.96C193.71,164.1,195.35,166.81,196.84,168.72z"/>
		</g>
	</g>
</g>
<g>
	<g>
		<line class="st9" x1="128.42" y1="189.79" x2="194.71" y2="181.63"/>
		<g>
			<path d="M199.5,181.04c-2.15,1.11-4.77,2.89-6.32,4.61l0.9-3.94l-1.83-3.61C194.17,179.4,197.15,180.48,199.5,181.04z"/>
		</g>
	</g>
</g>
<g>
	<g>
		<line class="st9" x1="128.42" y1="189.79" x2="201.93" y2="108.08"/>
		<g>
			<path d="M205.16,104.49c-0.89,2.25-1.71,5.31-1.74,7.63l-1.91-3.57l-3.75-1.52C200.06,106.75,203.02,105.61,205.16,104.49z"/>
		</g>
	</g>
</g>
<g>
	<g>
		<line class="st9" x1="128.42" y1="189.79" x2="200.83" y2="143.58"/>
		<g>
			<path d="M204.9,140.99c-1.46,1.93-3.06,4.66-3.72,6.89l-0.89-3.95l-3.21-2.47C199.38,141.8,202.53,141.5,204.9,140.99z"/>
		</g>
	</g>
</g>
<g>
	<g>
		<line class="st9" x1="115.12" y1="98.82" x2="196.03" y2="93.69"/>
		<g>
			<path d="M200.85,93.39c-2.21,0.98-4.94,2.6-6.58,4.23l1.13-3.88l-1.61-3.71C195.62,91.43,198.53,92.69,200.85,93.39z"/>
		</g>
	</g>
</g>
<text transform="matrix(1 0 0 1 79.0916 212.8308)" class="st11 st12">...</text>
</svg>
